<svg xmlns="http://www.w3.org/2000/svg" viewBox="0 0 147.07 28.98"><defs><style>.cls-1{fill:#121218;opacity:0.8;}.cls-2{fill:none;stroke:#f0524a;stroke-width:0.25px;}.cls-2,.cls-5{stroke-miterlimit:10;}.cls-3{font-size:21.51px;font-family:Rajdhani-SemiBold, Rajdhani;font-weight:600;}.cls-3,.cls-4{fill:#f0524a;}.cls-5{fill:#0f0f0f;stroke:#f0524b;stroke-width:0.1px;}</style></defs><title>1ablackarch-logo0</title><g id="Layer_2" data-name="Layer 2"><g id="HTML5"><polygon class="cls-1" points="146.94 0.13 146.94 21.73 140.19 28.48 0.13 28.48 0.13 0.13 146.94 0.13"/><polygon class="cls-2" points="146.94 0.13 146.94 21.73 140.19 28.48 0.13 28.48 0.13 0.13 146.94 0.13"/><text class="cls-3" transform="translate(34.22 21.8)">BLACKARCH</text><path class="cls-4" d="M18.78,21a4.39,4.39,0,0,0-.54-3.29,1.61,1.61,0,0,0-.8-.66A1.13,1.13,0,0,0,17,17a1.23,1.23,0,0,0-.44.09,4.76,4.76,0,0,0-.49.37,3.09,3.09,0,0,0-.8,1.73A4.73,4.73,0,0,0,15.31,21a23,23,0,0,0-6.42,2.72q3-5.57,5.93-11l1.6,1,.07-.09c-.06-.07-.11-.15-.17-.21l-1.16-1.08a.28.28,0,0,1-.06-.36c.41-.93.81-1.87,1.2-2.8L17,7.67l.85,1.79a5.27,5.27,0,0,0,.19.51c1.47,3.26,3.15,6.41,4.83,9.56.1.19.19.38.3.58l-1.87-.75,0,.06c.27.17.54.32.8.51l1.61,1.22a1,1,0,0,1,.14.15l1.31,2.43A24.3,24.3,0,0,0,18.78,21Z"/><path class="cls-5" d="M17.68,7.38a4.67,4.67,0,0,0,.19,2.08L17,7.67,16.3,9.13v0a1,1,0,0,0,.08-.39c0-.42,0-.84,0-1.33l-.89.17c0-.09-.08-.2-.14-.36.33-.08.64-.19,1-.24s.25-.1.26-.27c0-.37.07-.73.08-1.11,0-.56,0-1.12,0-1.68,0-.15-.05-.21-.2-.23a4.88,4.88,0,0,1-.55-.12c.05-.41.06-.41.43-.49a3.41,3.41,0,0,0,.5-.19c.07,0,.17-.05.22,0,.23.18.52.15.77.24s.21.25.34.44c-.26.06-.45.12-.64.15s-.21.07-.2.22c0,1,.06,1.9.1,2.85a.31.31,0,0,0,.18.19c.32.09.65.16,1,.25l-.13.38Z"/><path class="cls-5" d="M17.44,17.66c0,2-.06,3.94-.12,5.91a17.12,17.12,0,0,1-.24,1.75h-.14a14.28,14.28,0,0,1-.22-1.46c0-.69,0-1.38-.07-2.07,0-1.45-.06-2.9-.09-4.42,0-.1,0-.2,0-.31A1.23,1.23,0,0,1,17,17a1.13,1.13,0,0,1,.45.12Z"/></g></g></svg>