<svg xmlns="http://www.w3.org/2000/svg" viewBox="0 0 113.64 29.18"><defs><style>.cls-1{fill:#121218;opacity:0.8;}.cls-2,.cls-6{fill:#366fb6;}.cls-2,.cls-3{opacity:0.7;}.cls-3{fill:none;stroke:#366fb6;stroke-miterlimit:10;stroke-width:0.25px;}.cls-4{font-size:21.51px;font-family:Rajdhani-SemiBold, Rajdhani;font-weight:600;}.cls-4,.cls-5{fill:#d7d1d1;}</style></defs><title>1acss3-logo0</title><g id="Layer_2" data-name="Layer 2"><g id="HTML5"><polygon class="cls-1" points="113.52 0.13 113.52 21.73 106.77 28.48 0.13 28.48 0.13 0.13 113.52 0.13"/><polygon class="cls-2" points="113.52 0.13 113.52 21.73 106.77 28.48 0.13 28.48 0.13 0.13 113.52 0.13"/><polygon class="cls-3" points="113.52 0.13 113.52 21.73 106.77 28.48 0.13 28.48 0.13 0.13 113.52 0.13"/><text class="cls-4" transform="translate(47.91 22)">CSS3</text><path class="cls-5" d="M38.81,3.5c0,.39-.06.76-.09,1.14-.08.73-.14,1.46-.2,2.2s-.17,1.58-.23,2.36c-.09,1.05-.17,2.1-.26,3.14-.08.78-.15,1.56-.23,2.32s-.15,1.77-.23,2.67-.17,1.84-.26,2.77-.15,1.77-.23,2.65a.29.29,0,0,1-.24.31l-6.21,1.71c-.41.12-.83.26-1.26.35a1.18,1.18,0,0,1-.49-.06c-2.12-.58-4.24-1.18-6.36-1.77l-.9-.25c-.13,0-.18-.07-.19-.21-.1-1.07-.19-2.12-.28-3.19-.12-1.31-.23-2.62-.35-3.93-.14-1.56-.29-3.11-.43-4.67l-.48-5.35c-.07-.68-.13-1.35-.19-2V3.5Z"/><path class="cls-6" d="M24.17,16a.88.88,0,0,1,.2,0h1.87c.17,0,.27,0,.28.24,0,.41.06.82.08,1.24,0,.26.08.43.38.5.73.18,1.45.39,2.18.58a.75.75,0,0,0,.42,0c.78-.22,1.55-.45,2.31-.71a.45.45,0,0,0,.23-.34c.05-.71.07-1.43.11-2.14,0-.23,0-.46.06-.73h-8c-.26,0-.35-.07-.36-.34,0-.53-.06-1-.11-1.58a.43.43,0,0,1,.29-.52L29.28,10a1,1,0,0,0,.32-.2h-6l-.33-2.29h12c0,.39,0,.78,0,1.16s-.05.58-.06.87a.39.39,0,0,1-.27.36c-1.58.65-3.14,1.32-4.71,2a3.39,3.39,0,0,0-.79.43h5.5l-.58,7.31-1.55.46-3.16.86a1,1,0,0,1-.48,0l-4.39-1.28c-.21-.06-.26-.15-.28-.36-.05-.82-.14-1.64-.21-2.46C24.2,16.55,24.19,16.27,24.17,16Z"/></g></g></svg>