<svg xmlns="http://www.w3.org/2000/svg" viewBox="0 0 147.07 28.6"><defs><style>.cls-1{fill:#121218;opacity:0.8;}.cls-2{fill:none;stroke:#f79330;stroke-miterlimit:10;stroke-width:0.25px;}.cls-3{fill:#f79330;}.cls-4{fill:#fff;}</style></defs><title>Asset 27</title><g id="Layer_2" data-name="Layer 2"><g id="HTML5"><polygon class="cls-1" points="146.94 0.13 146.94 21.73 140.19 28.48 0.13 28.48 0.13 0.13 146.94 0.13"/><polygon class="cls-2" points="146.94 0.13 146.94 21.73 140.19 28.48 0.13 28.48 0.13 0.13 146.94 0.13"/><path class="cls-3" d="M17.77,14.67l.27-.16a1.23,1.23,0,0,1,.85-.17,2,2,0,0,0,1-.1c1-.33,1.93-.71,2.9-1.07v.07c.06,0,.16.07.18,0,.21-.22.48-.09.71-.12a3.86,3.86,0,0,1,.68,0,3.87,3.87,0,0,0,.46.06c.3,0,.61,0,.93-.07l.1.36h.43l.15-.17a.42.42,0,0,0,.61.1s.12,0,.14,0a.5.5,0,0,0,.62,0,.26.26,0,0,1,.27,0,.29.29,0,0,0,.42,0c.1-.08.19-.13.27,0s.09,0,.13,0c.25,0,.5,0,.75,0,.06,0,.11-.09.18-.12a.47.47,0,0,1,.16,0c0,.2.16.15.27.16a.65.65,0,0,1,.17,0l.17-.2.15.18,8.65-.11v0l-.54-.26a.58.58,0,0,0-.19,0l-.13,0-.74-.06h0c-.23.14-.48,0-.72,0,0,0-.11,0-.17,0s-.25-.08-.36,0-.09,0-.1,0c-.22-.22-.5.1-.73-.09,0,0-.09,0-.14,0a.53.53,0,0,1-.25,0c-.12,0-.23-.09-.35,0h0l-.77-.05-.1,0h-1.2s0,0-.07,0a.62.62,0,0,1,.16,0l4.53-.19c.63,0,1.27-.06,1.9-.13a3.33,3.33,0,0,0,.82-.23.7.7,0,0,1,.79.15l.82.71a.74.74,0,0,0,.59.12c.18,0,.25.07.28.22s0,0,0,.07a.87.87,0,0,1-.32,1c-.22.2-.38.52-.63.63a1.84,1.84,0,0,1-.88,0,21.65,21.65,0,0,0-2.54.16c-.89,0-1.77.05-2.66.06-.08,0-.16-.06-.21-.09-.17.23-.45,0-.67.14h.95v.06l-.65,0-2.54.15c-.12,0-.27,0-.26-.18l.84-.06v-.05h-1v.32L30.9,16c-1.49,0-3,0-4.48.09-1,0-2,.16-3,.24l-1.26.1a2.62,2.62,0,0,1-1.35-.27l-2.93-1.35h-.07Zm5.4-1.38,0,.07c.08.05.16.11.24.15s.09,0,.13,0,0-.13-.06-.14A1.35,1.35,0,0,0,23.17,13.29Z"/><path class="cls-3" d="M66.2,15.2a.34.34,0,0,1,0-.11c.64-1.47,1.28-2.93,1.91-4.4,0,0,0,0,0,0h0c-.21.35-.53.36-.89.34-.85,0-1.7,0-2.55,0a.47.47,0,0,0-.46.24.33.33,0,0,1-.34.18c-.66,0-1.32,0-2,0a.33.33,0,0,0-.35.23c-.07.18-.16.35-.26.56l5-.19c-.25.4-.49.8-.74,1.19a.25.25,0,0,1-.17.08l-2.51.26c-.76.08-1.53.17-2.29.23a.64.64,0,0,0-.5.35c-.07.1-.13.28-.21.29A1.1,1.1,0,0,1,58.8,14a1,1,0,0,0-.92-.44l1-1.38,0,0-.15.09L57,13.44a.41.41,0,0,1-.19.09l-3,0,0,0L55.85,12V12l-1.16-.08c-.36,0-.72-.07-1.08-.08a.41.41,0,0,0-.27.13c-.43.49-.85,1-1.28,1.5a.39.39,0,0,1-.23.13h-2.6l-.08,0,.11-.16c2-2.52,4-4.93,6.17-7.32q.57-.64,1.11-1.32a.31.31,0,0,1,.3-.14.4.4,0,0,0,.38-.17c.12-.14.25-.31.47-.18.15-.21.29-.43.44-.63l.82-1.07c.1-.13.17-.29.27-.42a3.34,3.34,0,0,1,.64-.83,5.68,5.68,0,0,0,.57-.52s0,0,.13-.05a1.35,1.35,0,0,1-.08.19,6.87,6.87,0,0,1-.72,1,5.81,5.81,0,0,0-.47.67,1,1,0,0,0-.22.81c0,.27,0,.53.1.79a1,1,0,0,1-.27,1l-4.09,5-.14.19h1.13q1.44,0,2.88.06a.31.31,0,0,1,.23.14,10.24,10.24,0,0,1,.53.88l.17-.25c.26-.38.52-.77.79-1.15a.3.3,0,0,1,.22-.1l4.14.06,1.58,0,1.86,0a.36.36,0,0,0,.38-.19.38.38,0,0,1,.4-.2c1.78.07,3.56.12,5.34.21,1.36.06,2.72.18,4.08.27l1.5.13a.27.27,0,0,1,.18.1L81,11.63a1.24,1.24,0,0,1-.72.51l-5.07,1.57c-.61.18-1.23.33-1.85.49l-.26.05c2.14,1,4.33,1.72,6.54,2.54-.12.15-.19.29-.3.4-.47.46-1,.91-1.45,1.36a.32.32,0,0,1-.26.07,44.79,44.79,0,0,1-5-1.6c-.84-.36-1.65-.79-2.47-1.18-.33-.15-.68-.25-1-.38l-.41-.16c-.33-.13-.37-.12-.52.2L67,18.2l-.87,2c-.09.22-.24.27-.4.1-.4-.45-.79-.91-1.18-1.37,0,0,0-.15,0-.2l1.13-2.52c.11-.24.21-.48.32-.7A1.71,1.71,0,0,1,66.2,15.2Zm10.38-3.74v-.05l-.16,0c-.64,0-1.28-.08-1.92-.09-1.48,0-3,0-4.43-.05a.27.27,0,0,0-.21.11l-.53,1.26c0,.1,0,.16.09.2s.42.15.63.21a.91.91,0,0,0,.4,0c1.6-.4,3.21-.81,4.81-1.23C75.7,11.72,76.14,11.59,76.58,11.46Zm-6.84,3.31v0h2.18v0Z"/><path class="cls-3" d="M83.74,14.17a.4.4,0,0,1,.45-.14,1.51,1.51,0,0,0,.3,0H90.1a.12.12,0,0,1,.08,0l-.18.08-3.81,1.28c-1,.34-2.08.66-3.12,1a.46.46,0,0,0-.3.26c-1,2.09-2.08,4.18-3.14,6.27a1.06,1.06,0,0,1-.34.39c-.48.35-1,.68-1.45,1a5.78,5.78,0,0,1-.81.51.42.42,0,0,0-.17.2c-.3.61-.6,1.22-.89,1.83,0,0,0,.06,0,.08-.17.47-.69.53-1,.88l0-.05,5-10.48.23,0,0-.05-.2-.12s0-.11.06-.12c.25-.05.2-.17.1-.31s0-.06,0-.1l.25-.05v-.05a.92.92,0,0,0-.37,0c-.14.06-.23,0-.33-.08s-.48-.33-.72-.51a2,2,0,0,1-.28-.29l1.11-.41c.4-.15.81-.29,1.2-.45a.39.39,0,0,0,.21-.19q1.08-2.22,2.14-4.44a.24.24,0,0,1,.25-.16l5.75-.3c.63,0,1.25-.1,1.88-.13.42,0,.85,0,1.28,0a14.33,14.33,0,0,0,2.46-.19,19.38,19.38,0,0,1,2-.23h.16l.08,0c-.09.52-.18,1-.28,1.56-.05.27-.09.54-.15.8a.32.32,0,0,1-.18.21c-1.42.53-2.84,1-4.28,1.55-.54.19-1.08.38-1.64.54a.59.59,0,0,1-.23.05H84.87l-.07,0c2.84-.86,5.69-1.69,8.48-2.7-.93.06-1.87.11-2.8.18l-3.07.2-1.93.14a.23.23,0,0,0-.17.1c-.15.25-.3.5-.43.77s-.4.79-.58,1.19c-.06.12-.13.18-.25.15S83.79,14,83.74,14.17Z"/><path class="cls-3" d="M45.24,13.77c-.32.21-.64.4-.94.61-.14.1-.22.07-.34,0-.31-.28-.63-.56-1-.82a.94.94,0,0,1-.3-.57,7.6,7.6,0,0,1-.09-2.38.28.28,0,0,1,.11-.17l1.51-1a.18.18,0,0,1,.28.08,1.11,1.11,0,0,1,.14.47c0,.94-.09,1.87-.14,2.81v.18l.22-.16c1.06-.87,2.11-1.75,3.18-2.62a.56.56,0,0,1,.35-.13c.78,0,1.56,0,2.35,0H51c0,.08-.06.12-.09.16-.88,1.07-1.77,2.14-2.64,3.22a.47.47,0,0,1-.39.19H46v.07H48L47,14.9c-.22.27-.44.52-.64.8a.41.41,0,0,1-.46.21c.13.33-.13.47-.28.65L42.94,19.8a.33.33,0,0,1-.31.15A2.84,2.84,0,0,0,42,20h.79l-.51.63c-.47.56-.95,1.11-1.4,1.68a.91.91,0,0,1-.68.35,1,1,0,0,0-.31.1c-.26.13-.5.3-.75.42s-.48.19-.72.28c0,0-.11,0-.12,0-.17.25-.48.3-.66.51-.69.79-1.34,1.61-2,2.4a3.08,3.08,0,0,1-.64.41l4.47-5.72C40.63,19.53,41.81,18,43,16.42c.22-.28.47-.53.69-.81a.43.43,0,0,1,.35-.14h1v-.06l-.31,0H44l1.32-1.56Z"/><path class="cls-3" d="M111.72,13.94l-.73-.38a.72.72,0,0,0-.19-.11,1.62,1.62,0,0,0-.45-.16h-1.83l0-.09,2.18-4c.34.5.83.22,1.26.25s.82,0,1.26,0l-1.56,2.91,13-6.32h0a3.39,3.39,0,0,1-.54.64,2.73,2.73,0,0,0-.88,1,1.9,1.9,0,0,1-.91.86c-.85.39-1.69.82-2.53,1.23a.53.53,0,0,0-.2.13,5.85,5.85,0,0,1-1.72,1c-1.33.71-2.67,1.39-4,2.08l-.21.13a1,1,0,0,0,.13.16l2.25,1.31.7.42c-.18.18-.36.36-.54.51,0,0-.11,0-.17,0h-1.31a13.26,13.26,0,0,0-1.67,0,1.14,1.14,0,0,1-.69-.22c-.6-.32-1.19-.65-1.8-1-.21.35-.41.69-.6,1a.3.3,0,0,1-.31.18h-2c-.26,0-.36-.17-.25-.39.29-.56.58-1.11.88-1.66a.27.27,0,0,1,.2-.12c.58,0,1.15,0,1.72,0a1.17,1.17,0,0,1,.44.13c.33.16.66.34,1,.51Z"/><path class="cls-3" d="M28,13.11h2.26v.06l-.75,0a1,1,0,0,0-.21.1.28.28,0,0,1-.13.07h-.31c-.12,0-.24,0-.2-.17l-.9.15a.42.42,0,0,0-.58-.25s-.08,0-.09,0c-.21-.24-.49.11-.72-.08,0,0-.13,0-.2,0l-.23,0a1.82,1.82,0,0,1-.33,0c-.12,0-.25-.06-.37-.08a4.91,4.91,0,0,0-.66-.06c-.18,0-.36.08-.49-.13,0,0-.12,0-.24-.07a3.07,3.07,0,0,1,.28-.2l1.3-.67,0-.05-.25,0,1.06-.5L36.36,6.56a5.36,5.36,0,0,0,.57-.34,17.6,17.6,0,0,1,2.54-1.34c.39-.18.76-.4,1.14-.59.06,0,.15-.06.19,0a.35.35,0,0,0,.39,0A2,2,0,0,1,42,4c.26,0,.51.26.75.41L44,5.2c.08.06.15.14.25.23l-1.54.74c-.37.18-.73.39-1.11.58a.4.4,0,0,1-.19,0c-.34-.06-.68-.13-1-.18a.76.76,0,0,0-.42.06L28.22,13Z"/><path class="cls-3" d="M98,15.54l.34,0-1.93,3.58c-.28-.19-.55-.36-.83-.53l-.86-.49.76-1.62-.19.1-2.45,1.64c-.33.23-.64.48-1,.73a.22.22,0,0,1-.32,0c-.36-.28-.71-.56-1.08-.81a.34.34,0,0,1-.14-.47c.45-1.09.9-2.18,1.33-3.28a.53.53,0,0,1,.61-.4c.49,0,1,0,1.52,0-.11.27-.21.52-.3.76-.16.39-.33.77-.47,1.17-.06.16-.06.34-.11.5s-.1.19-.14.32l.37-.22,2.56-1.74a3,3,0,0,1,.3-.19,2.9,2.9,0,0,0,1.3-1.27c1-1.66,2-3.3,3.09-4.93.09-.14.29-.19.44-.28l.07,0c-.05.22-.11.44-.14.66s0,.27,0,.4a.33.33,0,0,1-.08.19.34.34,0,0,0-.14.4,9.28,9.28,0,0,0,.4.91.23.23,0,0,1,0,.25c-.81,1.4-1.61,2.79-2.4,4.19-.1.17-.18.36-.43.29C98,15.47,98,15.5,98,15.54Zm-6.14-.13c-.1.19,0,.26.08.29l.44,0v0Z"/><path class="cls-3" d="M102.32,14.3c-.23.39-.44.72-.63,1a.26.26,0,0,1-.28.16l-1,0-.72,0c-.15,0-.29,0-.49,0,1.11-1.92,2.12-3.86,3.16-5.78l.12.06-.17.38.16.33h.07c.54,0,.56,0,.7.53.36,1.27.7,2.54,1,3.83l.17-.28c.18-.31.35-.62.53-.92s.15-.26.42-.3l-.17-.05s0,0,0,0c.53-.93,1.06-1.86,1.58-2.79a.29.29,0,0,1,.29-.15l1.75,0h.2c0,.08-.06.14-.09.19-.43.79-.86,1.58-1.3,2.37-.12.23-.19.53-.56.48l.26,0v0c-.37.7-.75,1.39-1.13,2.08a.29.29,0,0,1-.23.1h-3c-.36,0-.36,0-.45-.34S102.41,14.63,102.32,14.3Z"/><path class="cls-3" d="M56.47,13.84l-2.13,1.58a.58.58,0,0,1-.28.09H52.14v.07h1.93a.82.82,0,0,1-.67.34c-.75,0-1.5,0-2.29,0a.65.65,0,0,0,.54.25c.51-.05,1-.05,1.53-.07l.3,0-1.13.78h0c-.19.34-.55.22-.84.29-.09,0-.2,0-.25.11a.46.46,0,0,1-.34,0c-.18-.14-.32,0-.47,0a.07.07,0,0,0,0,0c0,.34-.22.18-.36.21a.75.75,0,0,1-.26,0c-.27,0-.48.14-.71.19a3.68,3.68,0,0,1-.57.06,11.63,11.63,0,0,0-1.18,0h2.1c0,.26.09.28.64.22.08-.31.14-.36.49-.38a3.35,3.35,0,0,1,.76.05l-.4.31c-.61.45-1.24.9-1.85,1.36-.2.15-.32,0-.45-.08-.64-.42-1.26-.85-1.89-1.27-.21-.14-.41-.29-.62-.45.34-.47.67-.92,1-1.37a.32.32,0,0,1,.2-.06h1.33a.64.64,0,0,0,.18-.06l0-.08H47.23l.64-.82c.35-.46.71-.92,1.08-1.37a.25.25,0,0,1,.19-.11h2.64l.06,0-2,2.44,0,.06.36-.22,1.85-1.29,1.37-.93a.53.53,0,0,1,.27-.08,3.36,3.36,0,0,1,1,0,8.09,8.09,0,0,0,1.77.15S56.46,13.82,56.47,13.84Z"/><path class="cls-3" d="M63.58,16.07a1.59,1.59,0,0,1-.32.16c-.24.06-.48.09-.73.13l-.06-.28h-.69c0,.28-.2.15-.35.2l0,.19.25,0v0l-.61.11v-.35c-.29-.05-.29-.05-.33.21a.32.32,0,0,1-.26.29,4.16,4.16,0,0,1-1.26.13.2.2,0,0,0-.13,0l.25.07-.93.24c-.24.07-.49.12-.72.21a.5.5,0,0,1-.58-.1c-.4-.33-.81-.63-1.22-.94a.08.08,0,0,0,0,0c.1-.09.19-.25.3-.26.45,0,.91,0,1.36-.06s1,0,1.42,0a.44.44,0,0,0,.27-.12H57.93a.67.67,0,0,1-.57-.17s-.12,0-.18,0h-.81l0-.07a.94.94,0,0,1,.23-.1l1.57,0h.75l0-.33c.18.05.38-.1.55.09s.14,0,.21,0c.8-.15,1.59-.32,2.39-.45,1.14-.2,2.28-.38,3.42-.56h.15c-.15.31-.29.58-.43.86,0,.12-.12.22-.16.34a.66.66,0,0,1-.42.41,4.41,4.41,0,0,1-.8.18c-.09,0-.19-.08-.29-.13Zm-1.08-.55c.09-.22.27-.17.42-.17h1.43v-.07H63c-.19,0-.4.07-.47-.25-.11.36-.43.12-.6.29h.51ZM64.84,15v-.06h-2.1V15Z"/><path class="cls-3" d="M113.06,15.59l1.33.06h.16c.64,0,1.28,0,1.92.06a2.07,2.07,0,0,1,.63.28v0l-.16,0c-.47,0-1,0-1.42,0a.51.51,0,0,0-.3.15c.31.11.63,0,.92.1v.06l-.22.06h1.27c.15,0,.23,0,.25.2a4.26,4.26,0,0,0,.15.69.46.46,0,0,0,.19.26L122.21,20l2.47,1.35.13.07-.15.25c.6-.13,1,.24,1.4.46a.65.65,0,0,0,.59.06.4.4,0,0,1,.3,0c.38.2.75.41,1.12.63.06,0,.08.14.12.21s-.12.09-.19.09l-1.06,0a.35.35,0,0,1-.16-.06l-2.87-1.52L114,16.35a2.51,2.51,0,0,1-.4-.33l-.2-.14-.37-.21Z"/><path class="cls-4" d="M100.26,23.09h.52v0l-.16,0a.47.47,0,0,0-.52.19c-.14.23-.54.15-.65-.12a.25.25,0,0,0-.27-.16H96.85a1.21,1.21,0,0,0-.36.1c0-.14-.12-.12-.25-.12l-.82.05c0,.25,0,.5,0,.75a.9.9,0,0,1-.79.88.94.94,0,0,1-1.07-.59,1.32,1.32,0,0,1,0-.26v-.81l-1.16.07a.22.22,0,0,0-.15.09c-.29.28-.59.56-.86.86a.65.65,0,0,1-.52.21H86.57l0,.38H84.63a.67.67,0,0,1,.16-.64c.37-.42.72-.86,1.07-1.3a1.11,1.11,0,0,0,.18-.34.47.47,0,1,0-.92-.22.54.54,0,0,1,0,.1h-.48a1.6,1.6,0,0,1,.07-.33.81.81,0,0,1,.71-.58.94.94,0,0,1,1,.37.86.86,0,0,1,0,1c-.31.45-.67.86-1,1.29l-.15.19h1.16l0-.2a5,5,0,0,0,.59.14,1,1,0,0,0,.57-.05c.12,0,.28.05.44.05H89.6a2.07,2.07,0,0,0,.4-.09v.1h1a.35.35,0,0,0,.22-.12c.33-.32.65-.65,1-1a.4.4,0,0,1,.27-.11,7.45,7.45,0,0,1,.82,0c.18,0,.23-.07.24-.22v-.47a.9.9,0,0,1,.95-.92.91.91,0,0,1,1,.94,2.16,2.16,0,0,1,0,.44c0,.18.07.23.23.23l3.61,0a.23.23,0,0,0,.16-.08.43.43,0,0,1,.49-.25C100.15,22.66,100.23,22.83,100.26,23.09Zm-5.32,0h0v-.71s0,0,0-.06c-.05-.33-.21-.48-.5-.47S94,22,94,22.32s0,.79,0,1.18c0,.07,0,.16,0,.22a.45.45,0,0,0,.4.58c.29,0,.48-.17.5-.52S94.94,23.29,94.94,23.05Zm5.19,0a.31.31,0,1,0-.32.3A.31.31,0,0,0,100.13,23.05Z"/><path class="cls-4" d="M103.75,21.83h-1v.5h-.48v-.95h.42c.45,0,.9,0,1.35,0,.16,0,.23.05.19.2s-.12.5-.19.74-.14.39-.22.59l.18,0h4.41a.43.43,0,0,0,.44-.2.42.42,0,0,1,.64,0,.45.45,0,0,0,.28.13c.75,0,1.49,0,2.24,0,.06,0,.16,0,.18-.08.12-.29.23-.59.36-.91h-1v.49h-.49c0-.28,0-.56,0-.83,0,0,.06-.11.1-.11h1.85c.12.55-.24,1-.34,1.48h4.08v.07h-4v0l.48,0v.07h-.47a.19.19,0,0,0-.21.15c-.15.4-.32.8-.45,1.22-.08.24-.2.33-.44.29l-.2,0,.38-1h-.39v0h.42l.22-.58h-.86l-1.37,0c-.13,0-.25,0-.33.17a.44.44,0,0,1-.33.23.54.54,0,0,1-.38-.21.3.3,0,0,0-.29-.17H104c-.13,0-.2,0-.21.16s-.19.23-.05.34a.84.84,0,0,0-.15.18,5.22,5.22,0,0,0-.28.75.28.28,0,0,1-.36.23,2.4,2.4,0,0,0-.27,0ZM108.91,23a.32.32,0,0,0,.29.31.33.33,0,0,0,.33-.3.32.32,0,0,0-.29-.3A.31.31,0,0,0,108.91,23Zm3.22,0v-.06h-2.49V23Z"/><path class="cls-3" d="M102.63,15.61h3.5c-.22.42-.42.81-.64,1.2a1.53,1.53,0,0,1-.26.31l-.06,0s.1.09.09.1c-.07.16-.17.3-.23.46s-.25.17-.41.18l-1.26.06s-.15,0-.15-.07C103,17.09,102.83,16.36,102.63,15.61Z"/><path class="cls-3" d="M98,17.81c.32-.64.65-1.23.94-1.84a.62.62,0,0,1,.7-.42c.56,0,1.12,0,1.68,0h.23c-.12.2-.21.37-.32.53a.23.23,0,0,1-.18.08h-.67l.78,0-.65,1.16a.23.23,0,0,1-.14.09l-2.16.32A1.4,1.4,0,0,1,98,17.81Z"/><path class="cls-3" d="M107.54,15.58h2.32c-.09.18-.18.37-.29.55s-.12.05-.18.05a7.87,7.87,0,0,0-1,0h1.1l-1.29,2.38-.17-.1c-.29-.22-.57-.45-.86-.66-.13-.09-.17-.17-.09-.32.21-.37.4-.76.59-1.14,0-.09.11-.16,0-.29S107.6,15.79,107.54,15.58Zm.18,1.55.64-.11V17l-.64-.07Z"/><path class="cls-3" d="M59.8,14.65c-.07.14-.08.29-.31.17a1.05,1.05,0,0,0-.47,0H57.81v.71H56.55a.69.69,0,0,1,.07-.15c.33-.47.67-.94,1-1.41a.38.38,0,0,1,.3-.15.91.91,0,0,1,1,.48c.18.32.5.34.81.37Z"/><path class="cls-3" d="M91.85,13.89a1.58,1.58,0,0,1,.23-.22,5.51,5.51,0,0,1,.65-.31c.12,0,.23-.2.4,0s.29-.05.44-.1a1.28,1.28,0,0,0,.22-.12v.84H91.9Z"/><path class="cls-3" d="M128.4,23.47l.17.61-1.49-.78v-.05c.36,0,.72,0,1.08,0,.1,0,.19.12.29.18Z"/><path class="cls-4" d="M110.46,23.64H108v-.05h2.44Z"/><path class="cls-4" d="M108.27,22.85H106v0h2.26Z"/><ellipse class="cls-4" cx="113.87" cy="23.65" rx="1.34" ry="0.04"/><path class="cls-4" d="M107.79,23.62H106.3v-.05h1.49Z"/><path class="cls-4" d="M117.12,22.74h1.16v.05h-1.15Z"/><path class="cls-4" d="M102.41,23.58h-.61c.13,0,.11-.3.31-.2a1.06,1.06,0,0,1,0,.15h.31Z"/><path class="cls-4" d="M92.67,23.94h.62V24h-.63Z"/><path class="cls-4" d="M116.12,23h.67v0h-.67Z"/><path class="cls-4" d="M97.5,24h.69v0H97.5Z"/><path class="cls-4" d="M113.84,23h1.32v0h-1.32Z"/><path class="cls-4" d="M99.35,23.63h.46v0h-.46Z"/><path class="cls-4" d="M102.42,23h-.5V23h.49Z"/></g></g></svg>