<svg xmlns="http://www.w3.org/2000/svg" viewBox="0 0 276.25 32.7"><defs><style>.cls-1{fill:#d7d1d1;}.cls-2{fill:#f0524a;}.cls-3{fill:#f79330;}</style></defs><title>Asset 26</title><g id="Layer_2" data-name="Layer 2"><g id="HTML5"><path class="cls-1" d="M60.62,11.25h-1a.24.24,0,0,1-.27-.27V1.23A.24.24,0,0,1,59.61,1h1a.24.24,0,0,1,.27.27v4c0,.11.07.16.2.16h3.37a.14.14,0,0,0,.16-.16v-4A.24.24,0,0,1,64.89,1h1a.24.24,0,0,1,.27.27V11a.24.24,0,0,1-.27.27h-1a.24.24,0,0,1-.27-.27V6.93a.14.14,0,0,0-.16-.16H61.09c-.13,0-.2.05-.2.16V11A.24.24,0,0,1,60.62,11.25Z"/><path class="cls-1" d="M68.45,1.73V.27A.22.22,0,0,1,68.7,0h1c.17,0,.26.08.26.25V1.73a.24.24,0,0,1-.26.27h-1C68.53,2,68.45,1.91,68.45,1.73Zm0,9.25V3.36c0-.18.08-.27.25-.27h1a.24.24,0,0,1,.27.27V11a.28.28,0,0,1-.06.21.27.27,0,0,1-.2.06h-1A.24.24,0,0,1,68.45,11Z"/><path class="cls-1" d="M76.14,4.45h-.77a.28.28,0,0,1-.21-.06.27.27,0,0,1-.06-.2V3.36a.24.24,0,0,1,.27-.27h.77a.14.14,0,0,0,.16-.16V1.49c0-.18.1-.27.29-.27h1a.24.24,0,0,1,.27.27V2.93c0,.11.06.16.17.16h1.49c.2,0,.29.09.29.27v.83c0,.17-.09.26-.29.26H78c-.11,0-.17,0-.17.16V8.72a1,1,0,0,0,1.2,1.17h.62c.2,0,.29.09.29.27V11c0,.17-.09.26-.29.26h-.86A2.58,2.58,0,0,1,77,10.61,2.41,2.41,0,0,1,76.3,8.8V4.61A.14.14,0,0,0,76.14,4.45Z"/><path class="cls-1" d="M82.8,11.25h-1a.24.24,0,0,1-.27-.27V.27A.24.24,0,0,1,81.79,0h1a.24.24,0,0,1,.27.27V3.94h.06a1.59,1.59,0,0,1,1.62-.85h.7a2.36,2.36,0,0,1,1.79.64,2.52,2.52,0,0,1,.63,1.84V11c0,.18-.1.27-.29.27h-1A.24.24,0,0,1,86.3,11V5.63a1,1,0,0,0-1.17-1.18h-.75c-.87,0-1.31.45-1.31,1.36V11A.24.24,0,0,1,82.8,11.25Z"/><path class="cls-1" d="M95.57,11.25H92.11a2.44,2.44,0,0,1-1.83-.66,2.43,2.43,0,0,1-.65-1.82V5.57a2.44,2.44,0,0,1,.65-1.83,2.44,2.44,0,0,1,1.83-.65h1.31a2.48,2.48,0,0,1,1.84.65,2.44,2.44,0,0,1,.66,1.83v2a.26.26,0,0,1-.29.29H91.34c-.12,0-.18.05-.18.16v.69A1,1,0,0,0,92.33,9.9h3.24c.19,0,.28.1.28.29V11C95.85,11.16,95.76,11.25,95.57,11.25ZM91.34,6.8H94.2c.11,0,.17,0,.17-.16v-1a1.25,1.25,0,0,0-.28-.89,1.16,1.16,0,0,0-.88-.28h-.88a1.18,1.18,0,0,0-.88.28,1.25,1.25,0,0,0-.27.89v1A.14.14,0,0,0,91.34,6.8Z"/><path class="cls-1" d="M99,11.25H98a.24.24,0,0,1-.27-.27V3.36A.24.24,0,0,1,98,3.09h1a.24.24,0,0,1,.27.27V4h.06a1.24,1.24,0,0,1,.62-.64,2.12,2.12,0,0,1,1-.24h.6a.24.24,0,0,1,.27.27v.83c0,.2-.09.29-.27.26h-1c-.89,0-1.33.48-1.33,1.45V11A.24.24,0,0,1,99,11.25Z"/><path class="cls-1" d="M108.81,11.25h-3.45a2.44,2.44,0,0,1-1.83-.66,2.43,2.43,0,0,1-.65-1.82V5.57a2.44,2.44,0,0,1,.65-1.83,2.44,2.44,0,0,1,1.83-.65h1.31a2.48,2.48,0,0,1,1.84.65,2.44,2.44,0,0,1,.65,1.83v2c0,.19-.09.29-.28.29h-4.29c-.12,0-.18.05-.18.16v.69a1,1,0,0,0,1.17,1.16h3.23a.26.26,0,0,1,.29.29V11C109.1,11.16,109,11.25,108.81,11.25ZM104.59,6.8h2.86a.14.14,0,0,0,.16-.16v-1a1.25,1.25,0,0,0-.27-.89,1.16,1.16,0,0,0-.88-.28h-.88a1.18,1.18,0,0,0-.88.28,1.25,1.25,0,0,0-.27.89v1A.14.14,0,0,0,104.59,6.8Z"/><path class="cls-2" d="M116.52,1.23V11a.24.24,0,0,1-.27.27h-1A.24.24,0,0,1,115,11V1.23a.24.24,0,0,1,.27-.27h1A.24.24,0,0,1,116.52,1.23Z"/><path class="cls-2" d="M120,1.22v.72a3.17,3.17,0,0,1-.29,1.13L119,4.64a.24.24,0,0,1-.24.14c-.14,0-.21-.08-.21-.25V1.23a.24.24,0,0,1,.26-.27h.91A.23.23,0,0,1,120,1.22Z"/><path class="cls-2" d="M123,11.25h-1a.24.24,0,0,1-.27-.27V3.36a.24.24,0,0,1,.27-.27h1a.24.24,0,0,1,.27.27v.58h.06a1.76,1.76,0,0,1,1.7-.85h.53a2.08,2.08,0,0,1,2,1,1.71,1.71,0,0,1,.79-.78,2.44,2.44,0,0,1,1.13-.27H130a2.33,2.33,0,0,1,1.79.65,2.55,2.55,0,0,1,.61,1.83V11a.24.24,0,0,1-.27.27h-1a.24.24,0,0,1-.27-.27V5.63a1,1,0,0,0-1.16-1.18h-.46c-.89,0-1.33.46-1.33,1.39V11c0,.18-.09.27-.29.27h-1c-.19,0-.28-.09-.28-.27V5.63a1,1,0,0,0-1.15-1.18h-.56c-.87,0-1.31.45-1.31,1.36V11A.24.24,0,0,1,123,11.25Z"/><path class="cls-2" d="M139.39,11.25h-1a.24.24,0,0,1-.27-.27V3.36a.24.24,0,0,1,.27-.27h1a.24.24,0,0,1,.27.27v.58h.06a1.76,1.76,0,0,1,1.7-.85H142a2.08,2.08,0,0,1,2,1,1.71,1.71,0,0,1,.79-.78,2.44,2.44,0,0,1,1.13-.27h.51a2.33,2.33,0,0,1,1.79.65,2.55,2.55,0,0,1,.61,1.83V11a.24.24,0,0,1-.27.27h-1a.24.24,0,0,1-.27-.27V5.63A1,1,0,0,0,146,4.45h-.46c-.88,0-1.33.46-1.33,1.39V11c0,.18-.09.27-.29.27h-1c-.19,0-.28-.09-.28-.27V5.63a1,1,0,0,0-1.15-1.18H141c-.87,0-1.31.45-1.31,1.36V11A.24.24,0,0,1,139.39,11.25Z"/><path class="cls-2" d="M152,11.25h-1a.24.24,0,0,1-.27-.27V3.36a.24.24,0,0,1,.27-.27h1a.24.24,0,0,1,.27.27V4h.07a1.22,1.22,0,0,1,.61-.64,2.16,2.16,0,0,1,1-.24h.59a.24.24,0,0,1,.27.27v.83c0,.2-.09.29-.27.26h-1c-.89,0-1.33.48-1.33,1.45V11A.24.24,0,0,1,152,11.25Z"/><path class="cls-2" d="M157.34,11.25h-1a.24.24,0,0,1-.27-.27V3.36a.24.24,0,0,1,.27-.27h1a.24.24,0,0,1,.27.27v.58h.07a1.57,1.57,0,0,1,1.61-.85H160a2.39,2.39,0,0,1,1.79.64,2.56,2.56,0,0,1,.62,1.84V11c0,.18-.09.27-.29.27h-1c-.19,0-.28-.09-.28-.27V5.63a1,1,0,0,0-1.16-1.18h-.76c-.87,0-1.31.45-1.31,1.36V11A.24.24,0,0,1,157.34,11.25Z"/><path class="cls-2" d="M165.61,11.25h-1a.24.24,0,0,1-.27-.27V3.36a.24.24,0,0,1,.27-.27h1a.24.24,0,0,1,.27.27v.58H166a1.57,1.57,0,0,1,1.61-.85h.71a2.38,2.38,0,0,1,1.79.64,2.52,2.52,0,0,1,.62,1.84V11c0,.18-.09.27-.28.27h-1a.24.24,0,0,1-.27-.27V5.63A1,1,0,0,0,168,4.45h-.75a1.18,1.18,0,0,0-1.32,1.36V11A.24.24,0,0,1,165.61,11.25Z"/><path class="cls-2" d="M175.58,10.85h-.72a2.33,2.33,0,0,1-1.77-.65,2.55,2.55,0,0,1-.61-1.83V5.57a2.44,2.44,0,0,1,.65-1.83A2.47,2.47,0,0,1,175,3.09h3.58c.19,0,.29.09.29.27v7.92a2.42,2.42,0,0,1-.67,1.82,2.5,2.5,0,0,1-1.83.64h-3c-.18,0-.27-.08-.27-.25v-.83c0-.19.09-.28.27-.28h2.77a1,1,0,0,0,1.17-1.18V10h-.06A1.61,1.61,0,0,1,175.58,10.85Zm1.68-2.72V4.61c0-.11-.06-.16-.18-.16h-1.9c-.76,0-1.14.39-1.14,1.18V8.29c0,.79.38,1.18,1.14,1.18H176A1.17,1.17,0,0,0,177.26,8.13Z"/><path class="cls-2" d="M183.74,11.25h-3a.24.24,0,0,1-.27-.27v-.79c0-.17.09-.25.27-.25h2.69c.7,0,1-.24,1-.72V9a1.06,1.06,0,0,0-.75-1L182,7.22a3.32,3.32,0,0,1-1.19-.85,1.94,1.94,0,0,1-.36-1.22c0-1.37.76-2.06,2.28-2.06h2.66a.24.24,0,0,1,.26.27v.78c0,.19-.09.28-.26.28h-2.34a1.34,1.34,0,0,0-.73.16.52.52,0,0,0-.26.44V5.2c0,.34.27.64.82.9l1.76.89a2.56,2.56,0,0,1,1.14.87,2.44,2.44,0,0,1,.31,1.31C186.12,10.55,185.33,11.25,183.74,11.25Z"/><path class="cls-2" d="M188,4.45h-.77a.3.3,0,0,1-.22-.06.32.32,0,0,1,0-.2V3.36a.24.24,0,0,1,.27-.27H188a.14.14,0,0,0,.16-.16V1.49c0-.18.09-.27.29-.27h1a.25.25,0,0,1,.28.27V2.93c0,.11.05.16.17.16h1.49c.19,0,.29.09.29.27v.83c0,.17-.1.26-.29.26h-1.49c-.12,0-.17,0-.17.16V8.72A1,1,0,0,0,191,9.89h.62c.19,0,.29.09.29.27V11c0,.17-.1.26-.29.26h-.86a2.58,2.58,0,0,1-1.86-.64,2.38,2.38,0,0,1-.67-1.81V4.61A.14.14,0,0,0,188,4.45Z"/><path class="cls-2" d="M194.68,11.25h-1c-.19,0-.28-.09-.28-.27V3.36c0-.18.09-.27.28-.27h1a.23.23,0,0,1,.27.27V4H195a1.24,1.24,0,0,1,.62-.64,2.12,2.12,0,0,1,1-.24h.59a.25.25,0,0,1,.28.27v.83c0,.2-.1.29-.28.26h-1c-.88,0-1.33.48-1.33,1.45V11A.23.23,0,0,1,194.68,11.25Z"/><path class="cls-2" d="M202.65,11.25h-1.53a2.47,2.47,0,0,1-1.84-.66,2.43,2.43,0,0,1-.66-1.82V3.44a2.44,2.44,0,0,1,.66-1.83A2.5,2.5,0,0,1,201.12,1h3.18a.24.24,0,0,1,.27.27v.83a.24.24,0,0,1-.27.26h-3a1,1,0,0,0-1.15,1.18V4.88h2.46a2.52,2.52,0,0,1,1.84.65,2.44,2.44,0,0,1,.66,1.83V8.77a2.43,2.43,0,0,1-.66,1.82A2.48,2.48,0,0,1,202.65,11.25Zm-1.31-1.36h1.09a1,1,0,0,0,1.15-1.19V7.42a1,1,0,0,0-1.15-1.18h-2.24V8.7A1,1,0,0,0,201.34,9.89Z"/><path class="cls-2" d="M210.89,11.25h-1.53a2.51,2.51,0,0,1-1.85-.66,2.47,2.47,0,0,1-.65-1.82V3.44a2.48,2.48,0,0,1,.65-1.83A2.54,2.54,0,0,1,209.36,1h3.18a.24.24,0,0,1,.27.27v.83a.24.24,0,0,1-.27.26h-3a1,1,0,0,0-1.15,1.18V4.88h2.46a2.52,2.52,0,0,1,1.84.65,2.44,2.44,0,0,1,.66,1.83V8.77a2.43,2.43,0,0,1-.66,1.82A2.48,2.48,0,0,1,210.89,11.25Zm-1.31-1.36h1.09a1,1,0,0,0,1.15-1.19V7.42a1,1,0,0,0-1.15-1.18h-2.24V8.7A1,1,0,0,0,209.58,9.89Z"/><path class="cls-2" d="M219.13,11.25H217.6a2.51,2.51,0,0,1-1.85-.66,2.47,2.47,0,0,1-.65-1.82V3.44a2.48,2.48,0,0,1,.65-1.83A2.54,2.54,0,0,1,217.6,1h3.18a.24.24,0,0,1,.27.27v.83a.24.24,0,0,1-.27.26h-3a1,1,0,0,0-1.15,1.18V4.88h2.46a2.52,2.52,0,0,1,1.84.65,2.44,2.44,0,0,1,.66,1.83V8.77a2.43,2.43,0,0,1-.66,1.82A2.48,2.48,0,0,1,219.13,11.25Zm-1.31-1.36h1.09a1,1,0,0,0,1.15-1.19V7.42a1,1,0,0,0-1.15-1.18h-2.24V8.7A1,1,0,0,0,217.82,9.89Z"/><path class="cls-1" d="M1.33,30.45H.17c-.15,0-.2-.09-.16-.27L2.8,20.43a.35.35,0,0,1,.38-.27h1.6a.35.35,0,0,1,.39.27L8,30.18q.06.27-.18.27H6.64a.27.27,0,0,1-.2-.06.37.37,0,0,1-.09-.21L5.74,28.1H2.22l-.61,2.08C1.57,30.36,1.48,30.45,1.33,30.45ZM4,21.7,2.54,26.82h2.9L4,21.7Z"/><path class="cls-1" d="M16.22,30.45h-.81a2.33,2.33,0,0,1-1.77-.65A2.55,2.55,0,0,1,13,28v-3.2a2.56,2.56,0,0,1,.62-1.84,2.33,2.33,0,0,1,1.77-.64h.81a1.54,1.54,0,0,1,1.6.85h.07V19.47a.24.24,0,0,1,.27-.27h1a.24.24,0,0,1,.27.27V30.18a.24.24,0,0,1-.27.27h-1a.24.24,0,0,1-.27-.27V29.6h-.07A1.54,1.54,0,0,1,16.22,30.45Zm1.67-2.72V25a1.18,1.18,0,0,0-1.32-1.36h-.84a1,1,0,0,0-1.16,1.18V27.9a1,1,0,0,0,1.16,1.19h.84A1.19,1.19,0,0,0,17.89,27.73Z"/><path class="cls-1" d="M27.25,30.45H23.79A2.44,2.44,0,0,1,22,29.79,2.47,2.47,0,0,1,21.31,28v-3.2A2.48,2.48,0,0,1,22,22.94a2.44,2.44,0,0,1,1.83-.65H25.1a2.48,2.48,0,0,1,1.84.65,2.44,2.44,0,0,1,.66,1.83v2a.26.26,0,0,1-.29.29H23c-.12,0-.17.05-.17.16v.69A1,1,0,0,0,24,29.1h3.24c.19,0,.28.1.28.29v.8C27.53,30.36,27.44,30.45,27.25,30.45ZM23,26h2.87a.14.14,0,0,0,.16-.16v-1a1.25,1.25,0,0,0-.28-.89,1.16,1.16,0,0,0-.88-.28H24a1.18,1.18,0,0,0-.88.28,1.25,1.25,0,0,0-.27.89v1A.14.14,0,0,0,23,26Z"/><path class="cls-1" d="M28.85,22.29h1.07a.28.28,0,0,1,.3.27L31.89,29H32l1.63-6.43a.31.31,0,0,1,.34-.27H35c.19,0,.26.09.19.27l-2.16,7.6a.33.33,0,0,1-.35.29H31.17a.34.34,0,0,1-.36-.29l-2.16-7.6C28.61,22.38,28.67,22.29,28.85,22.29Z"/><path class="cls-1" d="M42.3,30.45H38.85A2.26,2.26,0,0,1,36.37,28v-3.2a2.25,2.25,0,0,1,2.48-2.48h1.31a2.48,2.48,0,0,1,1.84.65,2.44,2.44,0,0,1,.65,1.83v2c0,.19-.09.29-.28.29H38.08c-.12,0-.18.05-.18.16v.69a1,1,0,0,0,1.17,1.16H42.3a.26.26,0,0,1,.29.29v.8C42.59,30.36,42.49,30.45,42.3,30.45ZM38.08,26h2.86a.14.14,0,0,0,.16-.16v-1a1.25,1.25,0,0,0-.27-.89,1.16,1.16,0,0,0-.88-.28h-.88a1.16,1.16,0,0,0-.88.28,1.25,1.25,0,0,0-.27.89v1A.14.14,0,0,0,38.08,26Z"/><path class="cls-1" d="M45.77,30.45h-1c-.19,0-.28-.09-.28-.27V19.47c0-.18.09-.27.28-.27h1a.25.25,0,0,1,.28.27V30.18A.25.25,0,0,1,45.77,30.45Z"/><path class="cls-1" d="M51.87,30.45H50.46a2.44,2.44,0,0,1-1.83-.66A2.47,2.47,0,0,1,48,28v-3.2a2.48,2.48,0,0,1,.65-1.83,2.44,2.44,0,0,1,1.83-.65h1.41a2.29,2.29,0,0,1,2.5,2.48V28a2.44,2.44,0,0,1-.67,1.82A2.47,2.47,0,0,1,51.87,30.45Zm-1.18-1.36h1a1,1,0,0,0,1.15-1.17v-3.1a1,1,0,0,0-1.15-1.17h-1a1.16,1.16,0,0,0-.88.28,1.2,1.2,0,0,0-.28.89v3.1a1.2,1.2,0,0,0,.28.89A1.16,1.16,0,0,0,50.69,29.09Z"/><path class="cls-1" d="M57.49,32.7h-1a.25.25,0,0,1-.28-.27V22.56a.25.25,0,0,1,.28-.27h1a.24.24,0,0,1,.27.27v.58h.06a1.59,1.59,0,0,1,1.62-.85h.81a2.33,2.33,0,0,1,1.77.64,2.56,2.56,0,0,1,.62,1.84V28A2.55,2.55,0,0,1,62,29.8a2.33,2.33,0,0,1-1.77.65h-.81a1.59,1.59,0,0,1-1.62-.85h-.06v2.83A.24.24,0,0,1,57.49,32.7Zm1.58-3.61h.85a1,1,0,0,0,1.15-1.19V24.83a1,1,0,0,0-1.15-1.18h-.85c-.88,0-1.31.45-1.31,1.36v2.72C57.76,28.63,58.19,29.09,59.07,29.09Z"/><path class="cls-1" d="M70.27,30.45H66.81A2.44,2.44,0,0,1,65,29.79,2.47,2.47,0,0,1,64.33,28v-3.2A2.48,2.48,0,0,1,65,22.94a2.44,2.44,0,0,1,1.83-.65h1.31a2.27,2.27,0,0,1,2.5,2.48v2a.25.25,0,0,1-.29.29H66c-.11,0-.17.05-.17.16v.69A1,1,0,0,0,67,29.1h3.23a.26.26,0,0,1,.29.29v.8C70.56,30.36,70.46,30.45,70.27,30.45ZM66,26h2.87a.14.14,0,0,0,.16-.16v-1a1.25,1.25,0,0,0-.27-.89,1.18,1.18,0,0,0-.88-.28H67a1.16,1.16,0,0,0-.88.28,1.25,1.25,0,0,0-.28.89v1A.14.14,0,0,0,66,26Z"/><path class="cls-1" d="M73.66,30.45h-1a.24.24,0,0,1-.27-.27V22.56a.24.24,0,0,1,.27-.27h1a.24.24,0,0,1,.27.27v.61H74a1.22,1.22,0,0,1,.61-.64,2.19,2.19,0,0,1,1-.24h.59a.24.24,0,0,1,.27.27v.83c0,.2-.09.29-.27.26h-1c-.88,0-1.33.48-1.33,1.45v5.08A.24.24,0,0,1,73.66,30.45Z"/><path class="cls-1" d="M84,22.29h1.35c.19,0,.28.08.28.25v.84c0,.18-.09.27-.28.27H84a.14.14,0,0,0-.16.16v6.37c0,.18-.09.27-.29.27h-1c-.19,0-.28-.09-.28-.27V23.81c0-.11,0-.16-.17-.16h-.85a.24.24,0,0,1-.27-.27v-.84a.34.34,0,0,1,.05-.2.37.37,0,0,1,.22-.05h.85c.12,0,.17-.05.17-.16v-.47a2.58,2.58,0,0,1,.61-1.82,2.34,2.34,0,0,1,1.78-.64h.7a.24.24,0,0,1,.27.26v.83a.24.24,0,0,1-.27.27h-.48a1,1,0,0,0-.81.28,1.45,1.45,0,0,0-.23.9v.39A.14.14,0,0,0,84,22.29Z"/><path class="cls-1" d="M88.19,30.45h-1a.24.24,0,0,1-.27-.27V22.56a.24.24,0,0,1,.27-.27h1a.24.24,0,0,1,.27.27v.61h.07a1.22,1.22,0,0,1,.61-.64,2.16,2.16,0,0,1,1-.24h.59a.24.24,0,0,1,.27.27v.83c0,.2-.09.29-.27.26h-1c-.89,0-1.33.48-1.33,1.45v5.08A.24.24,0,0,1,88.19,30.45Z"/><path class="cls-1" d="M96,30.45H94.59A2.27,2.27,0,0,1,92.11,28v-3.2a2.26,2.26,0,0,1,2.48-2.48H96a2.47,2.47,0,0,1,1.83.65,2.44,2.44,0,0,1,.66,1.83V28a2.43,2.43,0,0,1-.66,1.82A2.47,2.47,0,0,1,96,30.45Zm-1.19-1.36h1a1,1,0,0,0,1.15-1.17v-3.1a1,1,0,0,0-1.15-1.17h-1a1.18,1.18,0,0,0-.88.28,1.25,1.25,0,0,0-.27.89v3.1a1.25,1.25,0,0,0,.27.89A1.18,1.18,0,0,0,94.81,29.09Z"/><path class="cls-1" d="M101.61,30.45h-1a.24.24,0,0,1-.27-.27V22.56a.24.24,0,0,1,.27-.27h1a.24.24,0,0,1,.27.27v.58H102a1.75,1.75,0,0,1,1.69-.85h.53a2.11,2.11,0,0,1,2,1.05,1.73,1.73,0,0,1,.78-.78,2.46,2.46,0,0,1,1.14-.27h.51a2.3,2.3,0,0,1,1.78.65,2.55,2.55,0,0,1,.62,1.83v5.41a.24.24,0,0,1-.27.27h-1a.24.24,0,0,1-.27-.27V24.83a1,1,0,0,0-1.15-1.18h-.47c-.88,0-1.32.46-1.32,1.39v5.14c0,.18-.1.27-.29.27h-1a.24.24,0,0,1-.27-.27V24.83a1,1,0,0,0-1.15-1.18h-.56A1.18,1.18,0,0,0,101.88,25v5.17A.24.24,0,0,1,101.61,30.45Z"/><path class="cls-3" d="M122.28,30.45h-5.12a.24.24,0,0,1-.27-.27V20.43a.24.24,0,0,1,.27-.27h5.12a.24.24,0,0,1,.26.27v.82a.24.24,0,0,1-.26.27h-3.64c-.13,0-.2.05-.2.16v2.7c0,.11.07.16.2.16h3.08c.2,0,.29.09.29.28v.81c0,.18-.09.27-.29.27h-3.08c-.13,0-.2.06-.2.16v2.85c0,.12.07.18.2.18h3.64a.24.24,0,0,1,.26.27v.82A.24.24,0,0,1,122.28,30.45Z"/><path class="cls-3" d="M127.36,30.45h-.63a2.44,2.44,0,0,1-1.83-.66,2.47,2.47,0,0,1-.65-1.82v-3.2a2.48,2.48,0,0,1,.65-1.83,2.44,2.44,0,0,1,1.83-.65h3.59c.19,0,.28.09.28.27v7.62c0,.18-.09.27-.28.27h-1a.24.24,0,0,1-.27-.27V29.6H129A1.57,1.57,0,0,1,127.36,30.45ZM129,27.73V23.81c0-.11-.06-.16-.18-.16H127a1,1,0,0,0-1.16,1.18V27.9A1,1,0,0,0,127,29.09h.76A1.19,1.19,0,0,0,129,27.73Z"/><path class="cls-3" d="M135.52,30.45h-3a.24.24,0,0,1-.27-.27v-.79c0-.17.09-.25.27-.25h2.69c.69,0,1-.24,1-.72v-.2a1.06,1.06,0,0,0-.75-1l-1.75-.83a3.36,3.36,0,0,1-1.18-.85,1.89,1.89,0,0,1-.37-1.22c0-1.37.76-2.06,2.29-2.06h2.66c.17,0,.25.09.25.27v.78c0,.19-.08.28-.25.28h-2.34a1.38,1.38,0,0,0-.74.16.51.51,0,0,0-.25.44v.18q0,.51.81.9l1.76.89a2.54,2.54,0,0,1,1.15.87,2.44,2.44,0,0,1,.31,1.31C137.9,29.75,137.11,30.45,135.52,30.45Z"/><path class="cls-3" d="M139.8,23.65H139a.3.3,0,0,1-.22-.06.27.27,0,0,1-.06-.2v-.83c0-.18.09-.27.28-.27h.76a.14.14,0,0,0,.16-.16V20.69c0-.18.1-.27.29-.27h1a.24.24,0,0,1,.27.27v1.44c0,.11.06.16.18.16h1.49c.19,0,.28.09.28.27v.83c0,.17-.09.26-.28.26h-1.49c-.12,0-.18.05-.18.16v4.11a1,1,0,0,0,1.2,1.17h.63c.19,0,.28.09.28.27v.83c0,.17-.09.26-.28.26h-.87a2.54,2.54,0,0,1-1.85-.64A2.38,2.38,0,0,1,140,28V23.81A.14.14,0,0,0,139.8,23.65Z"/><path class="cls-3" d="M150.41,30.45h-1a.24.24,0,0,1-.27-.27V20.43a.24.24,0,0,1,.27-.27h.9a.37.37,0,0,1,.35.18l3.87,7h.06V20.43c0-.18.09-.27.28-.27h1a.24.24,0,0,1,.27.27v9.75a.24.24,0,0,1-.27.27H155a.47.47,0,0,1-.41-.26l-3.84-6.88h-.07v6.87A.24.24,0,0,1,150.41,30.45Z"/><path class="cls-3" d="M161.34,30.45h-.72a2.33,2.33,0,0,1-1.77-.65,2.55,2.55,0,0,1-.61-1.83V22.56a.24.24,0,0,1,.27-.27h1a.24.24,0,0,1,.27.27V27.9a1,1,0,0,0,1.15,1.19h.77A1.18,1.18,0,0,0,163,27.73V22.56a.24.24,0,0,1,.27-.27h1c.19,0,.29.09.29.27v7.62c0,.18-.1.27-.29.27h-1a.24.24,0,0,1-.27-.27V29.6H163A1.59,1.59,0,0,1,161.34,30.45Z"/><path class="cls-3" d="M169.5,30.45h-2.94c-.19,0-.28-.09-.28-.27v-.79c0-.17.09-.25.28-.25h2.68c.7,0,1-.24,1-.72v-.2a1.06,1.06,0,0,0-.75-1l-1.74-.83a3.32,3.32,0,0,1-1.19-.85,1.94,1.94,0,0,1-.36-1.22c0-1.37.76-2.06,2.28-2.06h2.66a.24.24,0,0,1,.26.27v.78c0,.19-.09.28-.26.28h-2.34a1.34,1.34,0,0,0-.73.16.52.52,0,0,0-.26.44v.18c0,.34.27.64.82.9l1.76.89a2.56,2.56,0,0,1,1.14.87,2.44,2.44,0,0,1,.31,1.31C171.88,29.75,171.09,30.45,169.5,30.45Z"/><path class="cls-3" d="M176.49,30.45h-.62A2.27,2.27,0,0,1,173.39,28v-3.2a2.26,2.26,0,0,1,2.48-2.48h3.58c.19,0,.29.09.29.27v7.62c0,.18-.1.27-.29.27h-1a.24.24,0,0,1-.27-.27V29.6h-.06A1.59,1.59,0,0,1,176.49,30.45Zm1.68-2.72V23.81c0-.11-.06-.16-.17-.16h-1.91a1,1,0,0,0-1.15,1.18V27.9a1,1,0,0,0,1.15,1.19h.77A1.18,1.18,0,0,0,178.17,27.73Z"/><path class="cls-3" d="M183,30.45h-1a.24.24,0,0,1-.27-.27V22.56a.24.24,0,0,1,.27-.27h1a.24.24,0,0,1,.27.27v.58h.07a1.57,1.57,0,0,1,1.61-.85h.71a2.39,2.39,0,0,1,1.79.64,2.56,2.56,0,0,1,.62,1.84v5.41c0,.18-.1.27-.29.27h-1c-.19,0-.28-.09-.28-.27V24.83a1,1,0,0,0-1.16-1.18h-.76c-.87,0-1.31.45-1.31,1.36v5.17A.24.24,0,0,1,183,30.45Z"/><path class="cls-3" d="M190.25,23.65h-.77a.28.28,0,0,1-.21-.06.27.27,0,0,1-.06-.2v-.83a.24.24,0,0,1,.27-.27h.77a.14.14,0,0,0,.16-.16V20.69c0-.18.1-.27.29-.27h1a.24.24,0,0,1,.27.27v1.44c0,.11.06.16.18.16h1.48c.2,0,.29.09.29.27v.83c0,.17-.09.26-.29.26h-1.48c-.12,0-.18.05-.18.16v4.11a1,1,0,0,0,1.2,1.17h.62c.2,0,.29.09.29.27v.83c0,.17-.09.26-.29.26h-.86a2.58,2.58,0,0,1-1.86-.64,2.41,2.41,0,0,1-.67-1.81V23.81A.14.14,0,0,0,190.25,23.65Z"/><path class="cls-3" d="M198.57,30.45H198A2.27,2.27,0,0,1,195.47,28v-3.2A2.26,2.26,0,0,1,198,22.29h3.58c.19,0,.29.09.29.27v7.62c0,.18-.1.27-.29.27h-1a.24.24,0,0,1-.27-.27V29.6h-.06A1.59,1.59,0,0,1,198.57,30.45Zm1.68-2.72V23.81c0-.11-.06-.16-.17-.16h-1.91A1,1,0,0,0,197,24.83V27.9a1,1,0,0,0,1.15,1.19h.77A1.18,1.18,0,0,0,200.25,27.73Z"/><path class="cls-3" d="M205.1,30.45h-1a.24.24,0,0,1-.27-.27V22.56a.24.24,0,0,1,.27-.27h1a.24.24,0,0,1,.27.27v.61h.07a1.22,1.22,0,0,1,.61-.64,2.16,2.16,0,0,1,1-.24h.59a.24.24,0,0,1,.27.27v.83c0,.2-.09.29-.27.26h-1c-.89,0-1.33.48-1.33,1.45v5.08A.24.24,0,0,1,205.1,30.45Z"/><path class="cls-3" d="M212.12,30.45h-.62a2.44,2.44,0,0,1-1.83-.66A2.47,2.47,0,0,1,209,28v-3.2a2.48,2.48,0,0,1,.65-1.83,2.44,2.44,0,0,1,1.83-.65h3.58c.2,0,.29.09.29.27v7.62c0,.18-.09.27-.29.27h-1c-.19,0-.28-.09-.28-.27V29.6h-.06A1.58,1.58,0,0,1,212.12,30.45Zm1.68-2.72V23.81c0-.11-.06-.16-.17-.16h-1.91a1,1,0,0,0-1.15,1.18V27.9a1,1,0,0,0,1.15,1.19h.77C213.37,29.09,213.8,28.63,213.8,27.73Z"/><path class="cls-2" d="M224.25,26h-3.17c-.18,0-.27-.09-.27-.28V25c0-.19.09-.29.27-.29h3.17c.18,0,.27.1.27.29v.71C224.52,25.89,224.43,26,224.25,26Z"/><path class="cls-3" d="M235.52,20.16h1c.2,0,.29.09.29.26V28a2.43,2.43,0,0,1-.66,1.82,2.5,2.5,0,0,1-1.83.66h-1.78A2.28,2.28,0,0,1,230.06,28V20.43a.24.24,0,0,1,.27-.27h1a.24.24,0,0,1,.27.27V27.9a1,1,0,0,0,1.15,1.19h1.31a1,1,0,0,0,1.17-1.19V20.43C235.24,20.25,235.33,20.16,235.52,20.16Z"/><path class="cls-3" d="M240.17,30.45h-1a.24.24,0,0,1-.27-.27V22.56a.24.24,0,0,1,.27-.27h1a.24.24,0,0,1,.27.27v.61h.07a1.22,1.22,0,0,1,.61-.64,2.19,2.19,0,0,1,1-.24h.59a.24.24,0,0,1,.27.27v.83c0,.2-.09.29-.27.26h-1c-.88,0-1.33.48-1.33,1.45v5.08A.24.24,0,0,1,240.17,30.45Z"/><path class="cls-3" d="M247.2,30.45h-.63a2.44,2.44,0,0,1-1.83-.66,2.47,2.47,0,0,1-.65-1.82v-3.2a2.48,2.48,0,0,1,.65-1.83,2.44,2.44,0,0,1,1.83-.65h3.59c.19,0,.28.09.28.27v7.62c0,.18-.09.27-.28.27h-1a.25.25,0,0,1-.28-.27V29.6h-.06A1.58,1.58,0,0,1,247.2,30.45Zm1.67-2.72V23.81c0-.11-.05-.16-.17-.16h-1.91a1,1,0,0,0-1.15,1.18V27.9a1,1,0,0,0,1.15,1.19h.77C248.44,29.09,248.87,28.63,248.87,27.73Z"/><path class="cls-3" d="M253.72,30.45h-1a.24.24,0,0,1-.27-.27V22.56a.24.24,0,0,1,.27-.27h1a.24.24,0,0,1,.27.27v.58h.07a1.57,1.57,0,0,1,1.61-.85h.71a2.38,2.38,0,0,1,1.79.64,2.52,2.52,0,0,1,.62,1.84v5.41c0,.18-.09.27-.28.27h-1a.24.24,0,0,1-.27-.27V24.83a1,1,0,0,0-1.17-1.18h-.75A1.18,1.18,0,0,0,254,25v5.17A.24.24,0,0,1,253.72,30.45Z"/><path class="cls-3" d="M261,23.65h-.76a.3.3,0,0,1-.22-.06.27.27,0,0,1-.06-.2v-.83a.25.25,0,0,1,.28-.27H261c.11,0,.17-.05.17-.16V20.69c0-.18.09-.27.28-.27h1a.24.24,0,0,1,.27.27v1.44c0,.11.06.16.18.16h1.49c.19,0,.28.09.28.27v.83c0,.17-.09.26-.28.26h-1.49c-.12,0-.18.05-.18.16v4.11a1,1,0,0,0,1.2,1.17h.63c.19,0,.28.09.28.27v.83c0,.17-.09.26-.28.26h-.87a2.55,2.55,0,0,1-1.85-.64,2.38,2.38,0,0,1-.67-1.81V23.81C261.12,23.7,261.06,23.65,261,23.65Z"/><path class="cls-3" d="M266.41,20.93V19.47c0-.17.09-.25.26-.25h1a.22.22,0,0,1,.25.25v1.46c0,.18-.08.27-.25.27h-1A.24.24,0,0,1,266.41,20.93Zm0,9.25V22.56a.24.24,0,0,1,.26-.27h1a.24.24,0,0,1,.27.27v7.62a.34.34,0,0,1,0,.21.28.28,0,0,1-.2.06h-1A.24.24,0,0,1,266.41,30.18Z"/><path class="cls-3" d="M273,30.45h-.62a2.44,2.44,0,0,1-1.83-.66A2.47,2.47,0,0,1,269.9,28v-3.2a2.48,2.48,0,0,1,.65-1.83,2.44,2.44,0,0,1,1.83-.65H276c.19,0,.29.09.29.27v7.62c0,.18-.1.27-.29.27h-1a.24.24,0,0,1-.27-.27V29.6h-.06A1.59,1.59,0,0,1,273,30.45Zm1.68-2.72V23.81c0-.11-.06-.16-.17-.16H272.6a1,1,0,0,0-1.15,1.18V27.9a1,1,0,0,0,1.15,1.19h.77A1.18,1.18,0,0,0,274.68,27.73Z"/></g></g></svg>