<svg xmlns="http://www.w3.org/2000/svg" viewBox="0 0 113.64 29.18"><defs><style>.cls-1{fill:#121218;opacity:0.8;}.cls-2,.cls-6{fill:#f0524a;}.cls-2{opacity:0.7;}.cls-3{fill:none;stroke:#f0524a;stroke-miterlimit:10;stroke-width:0.25px;}.cls-4{font-size:21.51px;font-family:Rajdhani-SemiBold, Rajdhani;font-weight:600;}.cls-4,.cls-5{fill:#fff;}</style></defs><title>1ahtml5-logo0</title><g id="Layer_2" data-name="Layer 2"><g id="HTML5"><polygon class="cls-1" points="113.52 0.13 113.52 21.73 106.77 28.48 0.13 28.48 0.13 0.13 113.52 0.13"/><polygon class="cls-2" points="113.52 0.13 113.52 21.73 106.77 28.48 0.13 28.48 0.13 0.13 113.52 0.13"/><polygon class="cls-3" points="113.52 0.13 113.52 21.73 106.77 28.48 0.13 28.48 0.13 0.13 113.52 0.13"/><text class="cls-4" transform="translate(42.68 22)">HTML5</text><path class="cls-5" d="M33.59,3.5c0,.39-.06.76-.1,1.14-.08.73-.14,1.46-.2,2.2s-.16,1.58-.22,2.36c-.1,1.05-.17,2.1-.27,3.14-.08.78-.14,1.56-.22,2.32s-.16,1.77-.24,2.67-.17,1.84-.25,2.77-.16,1.77-.24,2.65a.29.29,0,0,1-.24.31c-2.07.56-4.13,1.14-6.2,1.71-.42.12-.83.26-1.26.35a1.14,1.14,0,0,1-.49-.06c-2.13-.58-4.25-1.18-6.37-1.77L16.4,23c-.13,0-.18-.07-.19-.21-.11-1.07-.19-2.12-.29-3.19-.12-1.31-.22-2.62-.34-3.93-.15-1.56-.3-3.11-.43-4.67-.17-1.78-.32-3.56-.49-5.35-.07-.68-.13-1.35-.19-2V3.5Z"/><path class="cls-6" d="M29.77,9.87H20.64c0,.24,0,.45.06.67,0,.53.09,1.05.14,1.58,0,.19.12.2.27.2h8.17c.28,0,.29,0,.26.31L29.42,14c-.06.55-.12,1.12-.17,1.67-.07.71-.12,1.41-.18,2.13-.05.55-.08,1.11-.15,1.66,0,.08-.13.19-.2.22l-3.19.88-1.29.35a.69.69,0,0,1-.4,0L19.36,19.7c-.19,0-.23-.14-.25-.33-.06-.89-.15-1.79-.23-2.67,0-.26,0-.51-.06-.78h2.35c0,.49.11,1,.14,1.45s0,.44.44.56c.67.17,1.33.37,2,.52a1,1,0,0,0,.53,0c.73-.17,1.46-.38,2.2-.56.16-.05.21-.12.23-.31.07-.9.18-1.81.27-2.73,0,0,0-.09,0-.16H18.7c-.21-2.41-.43-4.79-.64-7.2H30C29.92,8.28,29.85,9.06,29.77,9.87Z"/></g></g></svg>