<svg xmlns="http://www.w3.org/2000/svg" viewBox="0 0 147.07 28.98"><defs><style>.cls-1,.cls-5,.cls-6{fill:#121218;}.cls-1,.cls-4{opacity:0.8;}.cls-2{fill:#f0524a;opacity:0.7;}.cls-3{fill:none;stroke:#f0524a;stroke-miterlimit:10;stroke-width:0.25px;}.cls-5{font-size:21.51px;font-family:Rajdhani-SemiBold, Rajdhani;font-weight:600;}</style></defs><title>1ahyprland-logo0</title><g id="Layer_2" data-name="Layer 2"><g id="HTML5"><polygon class="cls-1" points="146.94 0.13 146.94 21.73 140.19 28.48 0.13 28.48 0.13 0.13 146.94 0.13"/><polygon class="cls-2" points="146.94 0.13 146.94 21.73 140.19 28.48 0.13 28.48 0.13 0.13 146.94 0.13"/><polygon class="cls-3" points="146.94 0.13 146.94 21.73 140.19 28.48 0.13 28.48 0.13 0.13 146.94 0.13"/><g class="cls-4"><text class="cls-5" transform="translate(39.82 21.8)">HYPRLAND</text><path class="cls-6" d="M21.62,26c-.93-.28-1.89-.49-2.79-.85a8.12,8.12,0,0,1-4.3-4.06c-1.66-3.25-1.14-6.42.46-9.48a33.74,33.74,0,0,1,2.45-3.73c1.2-1.69,2.44-3.35,3.67-5a.94.94,0,0,1,.42-.34v.7c0,2.67,0,2.64-1.66,4.77a45.33,45.33,0,0,0-3.45,5,7.58,7.58,0,0,0-.63,6.61,6.64,6.64,0,0,0,5.68,4.6,7,7,0,0,0,6.33-2A7.21,7.21,0,0,0,29.58,15a14.34,14.34,0,0,0-2.82-5.13C25.82,8.63,24.92,7.37,24,6.1A2.16,2.16,0,0,1,23.72,5c0-.84,0-1.7,0-2.55l.14,0c.45.66.88,1.33,1.35,2,1.24,1.71,2.51,3.38,3.74,5.09a14.72,14.72,0,0,1,2.67,6.11,9,9,0,0,1-5.9,9.9c-.71.23-1.45.36-2.18.53Z"/></g></g></g></svg>