<svg xmlns="http://www.w3.org/2000/svg" viewBox="0 0 147.07 28.98"><defs><style>.cls-1,.cls-5{fill:#121218;}.cls-1,.cls-2{opacity:0.8;}.cls-2{fill:none;stroke:#efb534;stroke-miterlimit:10;stroke-width:0.25px;}.cls-3{font-size:21.51px;font-family:Rajdhani-SemiBold, Rajdhani;font-weight:600;}.cls-3,.cls-4{fill:#f79330;}</style></defs><title>1ajs-logo0</title><g id="Layer_2" data-name="Layer 2"><g id="HTML5"><polygon class="cls-1" points="146.94 0.13 146.94 21.73 140.19 28.48 0.13 28.48 0.13 0.13 146.94 0.13"/><polygon class="cls-2" points="146.94 0.13 146.94 21.73 140.19 28.48 0.13 28.48 0.13 0.13 146.94 0.13"/><text class="cls-3" transform="translate(34.22 21.8)">JAVASCRIPT</text><rect class="cls-4" x="6.01" y="3.3" width="22.01" height="22.01"/><path class="cls-5" d="M20.46,22.25,22,21.38l.27.33a1.89,1.89,0,0,0,2,.72.87.87,0,0,0,.78-.72.8.8,0,0,0-.47-.9c-.37-.21-.76-.37-1.13-.55s-.8-.37-1.16-.6a2.56,2.56,0,0,1-1.16-2.87A2.46,2.46,0,0,1,23.37,15a2.84,2.84,0,0,1,3,1.48l-.71.47-.71.45a1.39,1.39,0,0,0-1.13-.77.83.83,0,0,0-.88.5.78.78,0,0,0,.37,1c.33.2.7.34,1,.52s1,.46,1.42.75A2.48,2.48,0,0,1,26.85,22,2.37,2.37,0,0,1,25,24a3.93,3.93,0,0,1-4.23-1.32C20.63,22.55,20.56,22.41,20.46,22.25Z"/><path class="cls-5" d="M14,22.43l1.48-.9c.12.18.22.34.34.49a1.11,1.11,0,0,0,1.28.4.92.92,0,0,0,.55-1V15.07h1.84c0,.17,0,.31,0,.45,0,1.93,0,3.87,0,5.8a4.71,4.71,0,0,1-.19,1.24A2,2,0,0,1,18,23.91,3.11,3.11,0,0,1,14,22.43Z"/></g></g></svg>