<svg xmlns="http://www.w3.org/2000/svg" viewBox="0 0 147.07 28.98"><defs><style>.cls-1{fill:#121218;opacity:0.8;}.cls-2{fill:none;stroke:#f79330;stroke-miterlimit:10;stroke-width:0.25px;}.cls-3{font-size:21.51px;font-family:Rajdhani-SemiBold, Rajdhani;font-weight:600;}.cls-3,.cls-4{fill:#f79330;}</style></defs><title>1akittyterm-logo0</title><g id="Layer_2" data-name="Layer 2"><g id="HTML5"><polygon class="cls-1" points="146.94 0.13 146.94 21.73 140.19 28.48 0.13 28.48 0.13 0.13 146.94 0.13"/><polygon class="cls-2" points="146.94 0.13 146.94 21.73 140.19 28.48 0.13 28.48 0.13 0.13 146.94 0.13"/><text class="cls-3" transform="translate(39.04 21.8)">KITTY TERM</text><path class="cls-4" d="M15.06,13.71a1.4,1.4,0,0,1-1.85-.16.66.66,0,0,0-.47-.11c-.92,0-1.43-.32-1.52-1s.33-1.16,1.24-1.36l.15-.06v-.16c-.44,0-.88,0-1.32.07s-.9.15-1.45.25c1.18-1.32,2.74-.7,4.07-1a10,10,0,0,0-4.51-.76c1.91-.94,3.68-.41,5.42.51l.12-.13a2.66,2.66,0,0,0-.49-.56,9.38,9.38,0,0,0-3.35-1.29,2.8,2.8,0,0,1-.31-.09V7.63a10.29,10.29,0,0,1,1.36,0A5.93,5.93,0,0,1,13.52,8a12.4,12.4,0,0,0,1.42.6,8,8,0,0,0-.23-.84c-.39-.89-.9-1.74-1.2-2.65s.08-1.48,1.12-1.24,1.77.6,2.66.88a1.31,1.31,0,0,0,.78,0,8.54,8.54,0,0,1,6.71,0,1,1,0,0,0,.85,0,23,23,0,0,1,2.89-.91c.73-.16,1.09.18.9.89-.29,1-.78,2-1.17,3a2.35,2.35,0,0,0-.17.82,5.2,5.2,0,0,1,4.05-.78,6.71,6.71,0,0,0-.8.22c-.94.37-1.89.73-2.81,1.14a1.09,1.09,0,0,0-.43.61c1.78-.82,3.54-1.33,5.41-.41A11.42,11.42,0,0,0,29,10v.16c.33,0,.68,0,1,.07.81.1,1.62.2,2.42.35.21,0,.38.28.63.48l-2.78-.32,0,.17a7.42,7.42,0,0,1,.85.41,1,1,0,0,1,.52,1.27,1.09,1.09,0,0,1-1.13.81,1.56,1.56,0,0,0-1.15.36,1.28,1.28,0,0,1-1.52-.08v10c0,.85-.25,1.11-1.09,1.11H16.15c-.84,0-1.09-.26-1.09-1.11v-10Zm3.83-2.46a1.8,1.8,0,0,0,1.77-1.76,1.86,1.86,0,0,0-1.81-1.8A1.81,1.81,0,0,0,17.1,9.48,1.74,1.74,0,0,0,18.89,11.25Zm5.16,0a1.73,1.73,0,0,0,1.77-1.73A1.8,1.8,0,0,0,24.05,7.7a1.83,1.83,0,0,0-1.79,1.81A1.8,1.8,0,0,0,24.05,11.25Zm-4.49,7c-.83.82-1.6,1.59-2.38,2.35-.23.23-.44.48-.18.78s.58.09.82-.15c.72-.71,1.44-1.43,2.15-2.15s.83-.84,0-1.7-1.45-1.47-2.21-2.18a.89.89,0,0,0-.65-.14c-.08,0-.17.35-.15.53s.2.27.32.39Zm4.35,3.33h1.78c.34,0,.64-.09.63-.49s-.31-.43-.62-.42H22.08c-.34,0-.67,0-.66.45s.32.47.65.47ZM22.41,12a1.29,1.29,0,0,0-1.81,0Z"/></g></g></svg>