<svg xmlns="http://www.w3.org/2000/svg" viewBox="0 0 113.64 29.18"><defs><style>.cls-1{fill:#d7d1d1;opacity:0.7;}.cls-2{fill:none;stroke:#fff;stroke-miterlimit:10;stroke-width:0.25px;}.cls-3,.cls-5{fill:#121218;}.cls-4{fill:#f0524a;}.cls-5{font-size:21.51px;font-family:Rajdhani-SemiBold, Rajdhani;font-weight:600;}</style></defs><title>1akofi-logo0</title><g id="Layer_2" data-name="Layer 2"><g id="HTML5"><polygon class="cls-1" points="113.52 0.13 113.52 21.73 106.77 28.48 0.13 28.48 0.13 0.13 113.52 0.13"/><polygon class="cls-2" points="113.52 0.13 113.52 21.73 106.77 28.48 0.13 28.48 0.13 0.13 113.52 0.13"/><path class="cls-3" d="M31,3.29c2.2.12,4.91.16,7.59.45A6.32,6.32,0,0,1,44.27,11c-.34,3.34-2.1,5.26-5.49,6-.19.05-.38.34-.46.56-1.34,3.32-3.63,5.63-7.21,6.28-3.15.58-6.3.52-9.1-1.4a9.58,9.58,0,0,1-4.12-6.79,36.23,36.23,0,0,1-.31-6.58,5.54,5.54,0,0,1,5.59-5.47C25.6,3.47,28,3.4,31,3.29ZM19.65,10.92l-.18,0c.24,1.72.33,3.48.73,5.17.67,2.81,2.27,4.94,5.25,5.54a21.48,21.48,0,0,0,4.47.22,6.3,6.3,0,0,0,3.76-1.41,7.93,7.93,0,0,0,2.85-4.59c.15-.68.35-1.06,1.13-.94a3,3,0,0,0,1.14-.1,4.34,4.34,0,0,0,3.34-4.06c.06-2.59-.87-4.1-3.12-4.7a13.74,13.74,0,0,0-3.56-.45c-4.11,0-8.22,0-12.33.19a3.37,3.37,0,0,0-3.47,3.33A13.21,13.21,0,0,0,19.65,10.92Z"/><path class="cls-4" d="M28.43,9.81a3.2,3.2,0,0,1,2.79-1.45,3.3,3.3,0,0,1,3.13,2.94c.22,2.21-.91,3.79-2.46,5.12a16.08,16.08,0,0,1-2.57,1.77,1.81,1.81,0,0,1-1.47.1,10.55,10.55,0,0,1-4.58-3.94,4.37,4.37,0,0,1-.57-3.65,3.11,3.11,0,0,1,2.41-2.27A3,3,0,0,1,28.43,9.81Z"/><path class="cls-3" d="M36.79,10.34V8.78a.59.59,0,0,1,.67-.67A2,2,0,0,1,39.39,9a2.55,2.55,0,0,1,0,2.65,2.05,2.05,0,0,1-1.94.91.62.62,0,0,1-.68-.74C36.8,11.34,36.79,10.84,36.79,10.34Z"/><text class="cls-5" transform="translate(50.52 22)">KO-FI</text></g></g></svg>