<svg xmlns="http://www.w3.org/2000/svg" viewBox="0 0 113.64 29.18"><defs><style>.cls-1{fill:#d7d1d1;opacity:0.7;}.cls-2{fill:none;stroke:#fff;stroke-miterlimit:10;stroke-width:0.25px;}.cls-3{font-size:21.51px;font-family:Rajdhani-SemiBold, Rajdhani;font-weight:600;}.cls-3,.cls-4{fill:#121218;}</style></defs><title>1anextjs-logo0</title><g id="Layer_2" data-name="Layer 2"><g id="HTML5"><polygon class="cls-1" points="113.52 0.13 113.52 21.73 106.77 28.48 0.13 28.48 0.13 0.13 113.52 0.13"/><polygon class="cls-2" points="113.52 0.13 113.52 21.73 106.77 28.48 0.13 28.48 0.13 0.13 113.52 0.13"/><text class="cls-3" transform="translate(38.39 22)">NEXTJS</text><path class="cls-4" d="M20.55,25.12H18.92l-1-.19A10.79,10.79,0,0,1,20.83,3.57,10.44,10.44,0,0,1,30,11a19.28,19.28,0,0,1,.53,2.42v1.73a1.19,1.19,0,0,0-.07.27,10.46,10.46,0,0,1-2.31,5.69,9.56,9.56,0,0,1-2.53,2.25c-.1-.13-.18-.23-.25-.34L18.9,13.2,16.8,10a1,1,0,0,0-1.12-.42c-.48.12-.42.49-.42.84V13.1c0,2.12,0,4.23,0,6.35a.67.67,0,0,0,.58.75.75.75,0,0,0,1-.83V13.22c0-.17,0-.33,0-.63L24.56,24c-.6.23-1.12.48-1.67.63C22.12,24.83,21.33,25,20.55,25.12Zm3.64-6.78c0-.15,0-.2,0-.24,0-2.71,0-5.42,0-8.13,0-.45-.23-.63-.76-.62s-.75.18-.75.65c0,1.95,0,3.9,0,5.86a.77.77,0,0,0,.07.37C23.24,16.91,23.69,17.58,24.19,18.34Z"/></g></g></svg>