<svg xmlns="http://www.w3.org/2000/svg" viewBox="0 0 113.64 29.18"><defs><style>.cls-1{fill:#d7d1d1;opacity:0.7;}.cls-2{fill:none;stroke:#fff;stroke-miterlimit:10;stroke-width:0.25px;}.cls-3{font-size:21.51px;font-family:Rajdhani-SemiBold, Rajdhani;font-weight:600;}.cls-3,.cls-5{fill:#7f54a2;}.cls-4{fill:#366fb6;opacity:0.4;}</style></defs><title>1apaypal-logo0</title><g id="Layer_2" data-name="Layer 2"><g id="HTML5"><g id="BUTTON"><polygon class="cls-1" points="113.52 0.13 113.52 21.73 106.77 28.48 0.13 28.48 0.13 0.13 113.52 0.13"/><polygon class="cls-2" points="113.52 0.13 113.52 21.73 106.77 28.48 0.13 28.48 0.13 0.13 113.52 0.13"/></g><text class="cls-3" transform="translate(37.91 22)">PAYPAL</text><path class="cls-4" d="M18.25,9.09h2.69a4.77,4.77,0,0,1,4.72,4.74A4.69,4.69,0,0,1,21,18.61c-.94,0-1.89,0-2.83,0-.22,0-.33,0-.36.3-.21,1.55-.44,3.1-.65,4.65,0,.21-.12.28-.33.27l-3.34,0c-.43,0-.53-.09-.47-.52.13-1,.27-1.94.41-2.91.26-1.81.51-3.62.77-5.43s.51-3.62.77-5.43c.05-.38.11-.43.49-.43Z"/><path class="cls-5" d="M15.06,3.59h3.17a5.61,5.61,0,0,1,0,11.21H14.92c-.26,0-.39,0-.43.34-.24,1.83-.52,3.65-.77,5.47,0,.26-.13.33-.38.33l-3.93,0c-.51,0-.62-.12-.55-.62.15-1.14.32-2.28.48-3.42l.9-6.39q.45-3.21.91-6.4c.06-.44.13-.5.58-.5Z"/></g></g></svg>