<svg xmlns="http://www.w3.org/2000/svg" viewBox="0 0 147.07 28.98"><defs><style>.cls-1{fill:#121218;opacity:0.8;}.cls-2{fill:#66bf75;opacity:0.7;}.cls-3{fill:none;stroke:#66bf75;stroke-miterlimit:10;stroke-width:0.25px;}.cls-4{font-size:21.51px;font-family:Rajdhani-SemiBold, Rajdhani;font-weight:600;}.cls-4,.cls-5{fill:#fff;}</style></defs><title>1aquickshell-logo0</title><g id="Layer_2" data-name="Layer 2"><g id="HTML5"><polygon class="cls-1" points="146.94 0.13 146.94 21.73 140.19 28.48 0.13 28.48 0.13 0.13 146.94 0.13"/><polygon class="cls-2" points="146.94 0.13 146.94 21.73 140.19 28.48 0.13 28.48 0.13 0.13 146.94 0.13"/><polygon class="cls-3" points="146.94 0.13 146.94 21.73 140.19 28.48 0.13 28.48 0.13 0.13 146.94 0.13"/><text class="cls-4" transform="translate(34.4 21.8)">QUICKSHELL</text><path class="cls-5" d="M22.51,25.18H6.9a1.37,1.37,0,0,1-1-1.45c0-4.93,0-9.86,0-14.8a1.65,1.65,0,0,1,.52-1.26c1-1,2.08-2,3.08-3.08a2,2,0,0,1,1.58-.65q7.19,0,14.38,0c.79,0,1.42.15,1.68,1v15.6a16.49,16.49,0,0,1-1,1.31c-.73.78-1.49,1.53-2.27,2.27C23.43,24.51,23,24.83,22.51,25.18ZM10.39,18.05a2.66,2.66,0,0,1-.31.66.65.65,0,0,0,.11,1c.4.4.8.79,1.2,1.2a.64.64,0,0,0,.95.09,1,1,0,0,1,1.3,0,.47.47,0,0,0,.26.11,1.17,1.17,0,0,1,1,1.12.46.46,0,0,0,.51.44c.64,0,1.28.05,1.93,0a.65.65,0,0,0,.72-.63,1.18,1.18,0,0,1,.83-.94,1.74,1.74,0,0,1,2.1.14.56.56,0,0,0,.53,0c.54-.5,1.07-1,1.56-1.57a.59.59,0,0,0,0-.56,1.67,1.67,0,0,1-.16-2c.25-.53.51-.88,1.1-1a.5.5,0,0,0,.48-.53c0-.69,0-1.38,0-2.07a.5.5,0,0,0-.48-.54A1.12,1.12,0,0,1,23,12a.6.6,0,0,0-.11-.26A1.12,1.12,0,0,1,23,10.26a.5.5,0,0,0-.06-.72l-1.39-1.4a.55.55,0,0,0-.8-.06,1.05,1.05,0,0,1-1.38.07A.66.66,0,0,0,19,8a1.1,1.1,0,0,1-1-1,.55.55,0,0,0-.59-.54h-2a.52.52,0,0,0-.53.49,1.11,1.11,0,0,1-1,1.07.54.54,0,0,0-.22.09,1.17,1.17,0,0,1-1.51-.06.51.51,0,0,0-.72.07c-.47.46-.93.93-1.4,1.4a.53.53,0,0,0-.06.76,1.16,1.16,0,0,1,.06,1.47A.6.6,0,0,0,10,12a1.08,1.08,0,0,1-1,1,.55.55,0,0,0-.52.61c0,.66,0,1.32,0,2,0,.35.2.49.51.58s.82.13,1,.68A8.39,8.39,0,0,0,10.39,18.05Z"/><path class="cls-5" d="M20.61,16.14,20.29,16c-.81-.44-.82-.45-1.48.23-.3.3-.57.63-.86.94a.7.7,0,0,0-.06,1.07,2,2,0,0,1,.24.39,4.25,4.25,0,0,1-5-1.07,4.54,4.54,0,0,1,0-6A4.47,4.47,0,0,1,19,10.82,4.38,4.38,0,0,1,20.61,16.14Z"/></g></g></svg>