<svg xmlns="http://www.w3.org/2000/svg" viewBox="0 0 113.64 29.56"><defs><style>.cls-1{fill:#d7d1d1;opacity:0.7;}.cls-2{fill:none;stroke:#fff;stroke-miterlimit:10;stroke-width:0.25px;}.cls-3{font-size:21.51px;fill:#121218;font-family:Rajdhani-SemiBold, Rajdhani;font-weight:600;}</style></defs><title>saweria-logo</title><g id="Layer_2" data-name="Layer 2"><g id="HTML5"><polygon class="cls-1" points="113.52 0.13 113.52 21.73 106.77 28.48 0.13 28.48 0.13 0.13 113.52 0.13"/><polygon class="cls-2" points="113.52 0.13 113.52 21.73 106.77 28.48 0.13 28.48 0.13 0.13 113.52 0.13"/><text class="cls-3" transform="translate(30.93 22.38)">SAWERIA</text><path d="M8.14,24.46A2.91,2.91,0,0,1,6,22.71c0-.1-.21-.15-.33-.22-.59-.34-1.21-.65-1.79-1a1.42,1.42,0,0,1-.56-1.78l.39-1.27c-.93-.17-1.21-.54-.79-1.38.75-1.47,1.62-2.88,2.49-4.28C5.86,12,6.47,11.2,7,10.42a4.09,4.09,0,0,1-2.6-5.33,1.39,1.39,0,0,1,1.4-1,1.39,1.39,0,0,1,1.4,1c.19.69.24,1.43.36,2.14a5.55,5.55,0,0,0,.23,1.09A.93.93,0,0,0,9.15,9a11.78,11.78,0,0,1,6.18,0c.66.17,1.06,0,1.27-.64a11.7,11.7,0,0,0,.31-1.67,12.6,12.6,0,0,1,.22-1.37,1.5,1.5,0,0,1,1.51-1.19,1.53,1.53,0,0,1,1.47,1.17,4.08,4.08,0,0,1-2.36,5l-.34.14c.53.73,1.08,1.43,1.57,2.17.74,1.12,1.46,2.27,2.17,3.42a5,5,0,0,1,.47,1.12c.29.88.09,1.17-.82,1.28.15.53.32,1.05.46,1.57a1.09,1.09,0,0,1-.35,1.22c-.67.48-1.4.88-2.11,1.31-.12.07-.3.12-.37.23a3,3,0,0,1-3.67,1.35,4.43,4.43,0,0,1-1.07-.46,2.27,2.27,0,0,0-2.74.06,10.82,10.82,0,0,1-2,.78ZM9.37,11.87A1.57,1.57,0,0,0,7.62,12a2.57,2.57,0,0,0-.83,3.26,1.58,1.58,0,0,0,1.48.88A2,2,0,0,0,9.92,15c-.52.2-.86.15-1.14-.22A2.13,2.13,0,0,1,9.37,11.87Zm5.4,0C15.6,12,16,12.5,16,13.45a2.46,2.46,0,0,1-.26,1.22c-.19.3-.61.44-.93.65a1.67,1.67,0,0,0,2.95-.57,2.55,2.55,0,0,0-1-2.91A1.6,1.6,0,0,0,14.77,11.91Zm-1.36,1.58c-.68,0-1.48,0-2.27,0-.14,0-.32.2-.38.34-.23.55-.42,1.12-.61,1.68,0,.09,0,.2.06.31.29-.7.83-1,1.89-1,1.25,0,1.86.27,2.13,1l.14,0ZM5.12,5c1,.41,1.2,1.3,1.28,2.26a3.54,3.54,0,0,0,.38,1.26c.12.23.43.35.69.55-.13-.69-.24-1.24-.33-1.8a14.46,14.46,0,0,0-.32-1.88A1,1,0,0,0,5.12,5Zm10.16,4.6a9.42,9.42,0,0,0-5.56-.14A18.88,18.88,0,0,0,15.28,9.56Zm2.91,10.55c.4,0,.6-.23.47-.54A9.67,9.67,0,0,0,18,18.23c-.18-.3-.51-.35-.68,0a.92.92,0,0,0,.09.73C17.66,19.35,17.72,19.92,18.19,20.11Zm.08-1.9c.31.56.58,1.09.9,1.59,0,.08.33.09.42,0s.24-.33.19-.44a11.12,11.12,0,0,0-.7-1.43.55.55,0,0,0-.45-.15C18.5,17.84,18.42,18,18.27,18.21Zm.1-13.47c.65.06.81.49.87,1s.19,1.18.29,1.76h.13a3.49,3.49,0,0,0-.1-2.32A.84.84,0,0,0,18.37,4.74ZM7,18.75c-.14-.16-.23-.35-.36-.39a.53.53,0,0,0-.46.14,4.42,4.42,0,0,0-.49,1,.48.48,0,0,0,.18.43.49.49,0,0,0,.47-.05A13,13,0,0,0,7,18.75Zm-1.39-.69c-.19.08-.3.09-.34.15a11.42,11.42,0,0,0-.61,1.21c0,.08.12.3.23.35a.46.46,0,0,0,.42,0,5.41,5.41,0,0,0,.56-1.13C6,18.46,5.75,18.25,5.65,18.06Zm14.43-2.89a6.63,6.63,0,0,0,1.11,2.67A5,5,0,0,0,20.08,15.17ZM18,21.25c-.29-1-.81-1.4-1.42-1.13Zm-6.67.86.15-.16a2.55,2.55,0,0,0-.6-.66c-.15-.08-.44.1-.66.16v.17Z"/><path d="M31.14,11.62c-.05.24-.11.48-.17.72a4.08,4.08,0,0,1-6.53,2.19A2.52,2.52,0,0,0,22.27,14a5.06,5.06,0,0,1-.53.06,1.27,1.27,0,0,1-.38-.11,1.05,1.05,0,0,1,.15-.36c.35-.37.74-.72,1.08-1.1a.66.66,0,0,0,.16-.46A4,4,0,0,1,26.4,7.57a6.78,6.78,0,0,1,1.8.15,3.51,3.51,0,0,1,2.94,3.15Zm-9,2a5.16,5.16,0,0,0,1-.06,1.22,1.22,0,0,1,1.25.41,3.72,3.72,0,0,0,6-1,3.32,3.32,0,0,0-.78-4.11A4.51,4.51,0,0,0,26.37,8a3.56,3.56,0,0,0-3.21,3.58,1.69,1.69,0,0,1-.68,1.66A4.28,4.28,0,0,0,22.15,13.58Z"/><path d="M26.62,10.51c.3-.26.52-.5.78-.68A1,1,0,0,1,29,10.92,19.69,19.69,0,0,1,27.7,13a.48.48,0,0,1-.42.13,11.13,11.13,0,0,1-1.73-.63,1.11,1.11,0,0,1-.61-1.43,1.22,1.22,0,0,1,1.49-.61Zm1.93.1c-.1-.13-.21-.35-.39-.44a.66.66,0,0,0-.52.08,1,1,0,0,0-.41.42c-.2.41-.43.51-.87.28a.68.68,0,0,0-.94.25.61.61,0,0,0,.34.85,13.45,13.45,0,0,0,1.41.58.28.28,0,0,0,.24,0A3.8,3.8,0,0,0,28.55,10.61Z"/></g></g></svg>