<svg xmlns="http://www.w3.org/2000/svg" viewBox="0 0 53.44 11.54"><defs><style>.cls-1{fill:#f0524a;}</style></defs><title>Asset 24</title><g id="Layer_2" data-name="Layer 2"><g id="HTML5"><path class="cls-1" d="M3.07,13.76A2.15,2.15,0,0,1,2,13.46a2.41,2.41,0,0,1-.81-.81,2.15,2.15,0,0,1-.3-1.11v-.88H3v.78a.2.2,0,0,0,.06.14.19.19,0,0,0,.13.05h6.9a.19.19,0,0,0,.13-.05.2.2,0,0,0,.06-.14V9.25a.15.15,0,0,0-.06-.13.19.19,0,0,0-.13,0h-7A2.15,2.15,0,0,1,2,8.77,2.25,2.25,0,0,1,1.15,8a2.17,2.17,0,0,1-.3-1.13V4.46a2.15,2.15,0,0,1,.3-1.11A2.41,2.41,0,0,1,2,2.54a2.15,2.15,0,0,1,1.11-.3h7.07a2.16,2.16,0,0,1,1.12.3,2.48,2.48,0,0,1,.8.81,2.07,2.07,0,0,1,.31,1.11v.88H10.24V4.56a.2.2,0,0,0-.06-.14.19.19,0,0,0-.13,0H3.15a.19.19,0,0,0-.13,0A.2.2,0,0,0,3,4.56V6.75A.15.15,0,0,0,3,6.88a.19.19,0,0,0,.13,0h7a2.16,2.16,0,0,1,1.12.3,2.3,2.3,0,0,1,.8.81,2.09,2.09,0,0,1,.31,1.13v2.37a2.07,2.07,0,0,1-.31,1.11,2.48,2.48,0,0,1-.8.81,2.16,2.16,0,0,1-1.12.3Z" transform="translate(-0.85 -2.22)"/><path class="cls-1" d="M14.13,13.76V2.24h2.13V6.93H19L22.9,2.24h2.3v.61L20.88,8l4.34,5.15v.61H22.9L19,9.07h-2.7v4.69Z" transform="translate(-0.85 -2.22)"/><path class="cls-1" d="M26.64,13.76V2.24h2.1V13.76Z" transform="translate(-0.85 -2.22)"/><path class="cls-1" d="M30.3,13.76V2.22h2.12v9.41h9.4v2.13Z" transform="translate(-0.85 -2.22)"/><path class="cls-1" d="M42.77,13.76V2.22h2.11v9.41h9.41v2.13Z" transform="translate(-0.85 -2.22)"/></g></g></svg>