<svg xmlns="http://www.w3.org/2000/svg" viewBox="0 0 244.99 11.65"><defs><style>.cls-1{fill:#f0524a;}</style></defs><title>Asset 22</title><g id="Layer_2" data-name="Layer 2"><g id="HTML5"><path class="cls-1" d="M3.07,13.76A2.15,2.15,0,0,1,2,13.46a2.41,2.41,0,0,1-.81-.81,2.15,2.15,0,0,1-.3-1.11v-.88H3v.78a.2.2,0,0,0,.06.14.19.19,0,0,0,.13.05h6.9a.19.19,0,0,0,.13-.05.2.2,0,0,0,.06-.14V9.25a.15.15,0,0,0-.06-.13.19.19,0,0,0-.13,0h-7A2.15,2.15,0,0,1,2,8.77,2.25,2.25,0,0,1,1.15,8a2.17,2.17,0,0,1-.3-1.13V4.46a2.15,2.15,0,0,1,.3-1.11A2.41,2.41,0,0,1,2,2.54a2.15,2.15,0,0,1,1.11-.3h7.07a2.16,2.16,0,0,1,1.12.3,2.48,2.48,0,0,1,.8.81,2.07,2.07,0,0,1,.31,1.11v.88H10.24V4.56a.2.2,0,0,0-.06-.14.19.19,0,0,0-.13,0H3.15a.19.19,0,0,0-.13,0A.2.2,0,0,0,3,4.56V6.75A.15.15,0,0,0,3,6.88a.19.19,0,0,0,.13,0h7a2.16,2.16,0,0,1,1.12.3,2.3,2.3,0,0,1,.8.81,2.09,2.09,0,0,1,.31,1.13v2.37a2.07,2.07,0,0,1-.31,1.11,2.48,2.48,0,0,1-.8.81,2.16,2.16,0,0,1-1.12.3Z" transform="translate(-0.85 -2.22)"/><path class="cls-1" d="M15.19,13.46a2.61,2.61,0,0,1-.81-.81,2.15,2.15,0,0,1-.3-1.11V2.24h2.11v9.2a.2.2,0,0,0,.06.14.21.21,0,0,0,.13.05h6.88a.25.25,0,0,0,.15-.05.2.2,0,0,0,.06-.14V2.24H25.6v9.3a2.07,2.07,0,0,1-.31,1.11,2.48,2.48,0,0,1-.8.81,2.15,2.15,0,0,1-1.11.3H16.3A2.15,2.15,0,0,1,15.19,13.46Z" transform="translate(-0.85 -2.22)"/><path class="cls-1" d="M27.41,2.24h8.83a2.15,2.15,0,0,1,1.11.3,2.41,2.41,0,0,1,.81.81,2.15,2.15,0,0,1,.3,1.11V6.72a2.6,2.6,0,0,1,0,.4,1.58,1.58,0,0,1-.11.37,3.48,3.48,0,0,1,.44.77,2.05,2.05,0,0,1,.17.8v2.48a2.07,2.07,0,0,1-.31,1.11,2.41,2.41,0,0,1-.81.81,2.19,2.19,0,0,1-1.12.3H27.41Zm2.3,4.59h6.43a.17.17,0,0,0,.13,0,.24.24,0,0,0,0-.14V4.56a.24.24,0,0,0,0-.14.17.17,0,0,0-.13,0H29.71a.19.19,0,0,0-.13,0,.2.2,0,0,0-.06.14V6.64a.2.2,0,0,0,.06.14A.19.19,0,0,0,29.71,6.83Zm0,4.8h6.88a.3.3,0,0,0,.15-.05.2.2,0,0,0,.06-.14V9.15A.16.16,0,0,0,36.74,9,.24.24,0,0,0,36.59,9H29.71a.21.21,0,0,0-.19.19v2.29a.2.2,0,0,0,.06.14A.19.19,0,0,0,29.71,11.63Z" transform="translate(-0.85 -2.22)"/><path class="cls-1" d="M42.85,13.76a2.1,2.1,0,0,1-1.11-.3,2.41,2.41,0,0,1-.81-.81,2.07,2.07,0,0,1-.31-1.11v-.88h2.12v.78a.19.19,0,0,0,0,.14.22.22,0,0,0,.14.05h6.89a.22.22,0,0,0,.14-.05.2.2,0,0,0,.06-.14V9.25A.15.15,0,0,0,50,9.12a.22.22,0,0,0-.14,0h-7a2.1,2.1,0,0,1-1.11-.3A2.25,2.25,0,0,1,40.93,8a2.09,2.09,0,0,1-.31-1.13V4.46a2.07,2.07,0,0,1,.31-1.11,2.41,2.41,0,0,1,.81-.81,2.1,2.1,0,0,1,1.11-.3h7.07a2.12,2.12,0,0,1,1.11.3,2.41,2.41,0,0,1,.81.81,2.15,2.15,0,0,1,.3,1.11v.88H50V4.56A.2.2,0,0,0,50,4.42a.22.22,0,0,0-.14,0H42.93a.22.22,0,0,0-.14,0,.19.19,0,0,0,0,.14V6.75a.14.14,0,0,0,0,.13.22.22,0,0,0,.14,0h7a2.12,2.12,0,0,1,1.11.3,2.25,2.25,0,0,1,.81.81,2.17,2.17,0,0,1,.3,1.13v2.37a2.15,2.15,0,0,1-.3,1.11,2.41,2.41,0,0,1-.81.81,2.12,2.12,0,0,1-1.11.3Z" transform="translate(-0.85 -2.22)"/><path class="cls-1" d="M56.11,13.76a2.12,2.12,0,0,1-1.11-.3,2.41,2.41,0,0,1-.81-.81,2.15,2.15,0,0,1-.3-1.11V4.46a2.15,2.15,0,0,1,.3-1.11A2.41,2.41,0,0,1,55,2.54a2.12,2.12,0,0,1,1.11-.3h9.26V4.37H56.56a.6.6,0,0,0-.41.14.57.57,0,0,0-.15.42v6.14a.52.52,0,0,0,.56.56h8.81v2.13Z" transform="translate(-0.85 -2.22)"/><path class="cls-1" d="M67,13.76V2.26h9.28a2.19,2.19,0,0,1,1.12.3,2.25,2.25,0,0,1,.81.81,2,2,0,0,1,.31,1.11v3.1a2.08,2.08,0,0,1-.31,1.12,2.25,2.25,0,0,1-.81.81,2.19,2.19,0,0,1-1.12.3H69.15v3.94Zm2.3-6.08h6.88a.27.27,0,0,0,.15,0,.15.15,0,0,0,.06-.13V4.56a.2.2,0,0,0-.06-.14.27.27,0,0,0-.15,0H69.34a.19.19,0,0,0-.13,0,.2.2,0,0,0-.06.14V7.5a.15.15,0,0,0,.06.13A.19.19,0,0,0,69.34,7.68Zm6.88,6.08L72.75,9.62h2.77l3,3.55v.59Z" transform="translate(-0.85 -2.22)"/><path class="cls-1" d="M80,13.76V2.24h2.1V13.76Z" transform="translate(-0.85 -2.22)"/><path class="cls-1" d="M83.71,2.24h8.83a2.1,2.1,0,0,1,1.11.3,2.41,2.41,0,0,1,.81.81,2.07,2.07,0,0,1,.31,1.11V6.72a1.75,1.75,0,0,1,0,.4,1.21,1.21,0,0,1-.11.37,3.48,3.48,0,0,1,.44.77,2.05,2.05,0,0,1,.17.8v2.48a2.15,2.15,0,0,1-.3,1.11,2.54,2.54,0,0,1-.82.81,2.16,2.16,0,0,1-1.12.3H83.71ZM86,6.83h6.44a.17.17,0,0,0,.12,0,.19.19,0,0,0,.05-.14V4.56a.19.19,0,0,0-.05-.14.17.17,0,0,0-.12,0H86a.21.21,0,0,0-.13,0,.2.2,0,0,0-.06.14V6.64a.2.2,0,0,0,.06.14A.21.21,0,0,0,86,6.83Zm0,4.8h6.88a.25.25,0,0,0,.15-.05.2.2,0,0,0,.06-.14V9.15A.16.16,0,0,0,93,9,.2.2,0,0,0,92.89,9H86a.18.18,0,0,0-.13.06.16.16,0,0,0-.06.13v2.29a.2.2,0,0,0,.06.14A.21.21,0,0,0,86,11.63Z" transform="translate(-0.85 -2.22)"/><path class="cls-1" d="M97,13.76V2.24h10.6V4.37H99.13V6.93H106V9.07H99.13v2.56h8.48v2.13Z" transform="translate(-0.85 -2.22)"/><path class="cls-1" d="M116.29,13.76a2.1,2.1,0,0,1-1.11-.3,2.24,2.24,0,0,1-.8-.79,2.11,2.11,0,0,1-.3-1.12V8.45a1.23,1.23,0,0,1,.25-.72A1.41,1.41,0,0,1,115,7.2a1.53,1.53,0,0,1-.35-1.06V4.46a2.13,2.13,0,0,1,.3-1.12,2.27,2.27,0,0,1,.8-.8,2.13,2.13,0,0,1,1.09-.28h5.93a2.14,2.14,0,0,1,1,.24,2.41,2.41,0,0,1,.8.65,2.16,2.16,0,0,1,.41.93V5.31h-2.09V4.56a.2.2,0,0,0-.06-.14.22.22,0,0,0-.14,0H117a.21.21,0,0,0-.13,0,.2.2,0,0,0-.06.14V6.45l6.61,3.33V8h2.1v2.61l1.92,1.14v2.09l-2.23-1.26a2.38,2.38,0,0,1-.81.83,2.06,2.06,0,0,1-1.09.32Zm.08-2.1H122a1.27,1.27,0,0,0,.34,0l.3-.13-6-3-.24-.1q-.09,0-.15.15a1.74,1.74,0,0,0-.06.57v2.37a.18.18,0,0,0,.06.14A.17.17,0,0,0,116.37,11.66Z" transform="translate(-0.85 -2.22)"/><path class="cls-1" d="M134.06,13.76V2.24h10.61V4.37h-8.48V6.93H143V9.07h-6.82v4.69Z" transform="translate(-0.85 -2.22)"/><path class="cls-1" d="M147.79,13.76a2.1,2.1,0,0,1-1.11-.3,2.41,2.41,0,0,1-.81-.81,2.15,2.15,0,0,1-.3-1.11V4.46a2.15,2.15,0,0,1,.3-1.11,2.41,2.41,0,0,1,.81-.81,2.1,2.1,0,0,1,1.11-.3h7.07a2.1,2.1,0,0,1,1.11.3,2.41,2.41,0,0,1,.81.81,2.15,2.15,0,0,1,.3,1.11v7.08a2.15,2.15,0,0,1-.3,1.11,2.41,2.41,0,0,1-.81.81,2.1,2.1,0,0,1-1.11.3Zm.08-2.13h6.88a.24.24,0,0,0,.14-.05.17.17,0,0,0,.07-.14V4.56a.17.17,0,0,0-.07-.14.24.24,0,0,0-.14,0h-6.88a.17.17,0,0,0-.19.19v6.88a.17.17,0,0,0,.19.19Z" transform="translate(-0.85 -2.22)"/><path class="cls-1" d="M158.86,13.76V2.22H161v9.41h9.41v2.13Z" transform="translate(-0.85 -2.22)"/><path class="cls-1" d="M171.33,13.76V2.22h2.11v9.41h9.4v2.13Z" transform="translate(-0.85 -2.22)"/><path class="cls-1" d="M186,13.76a2.15,2.15,0,0,1-1.11-.3,2.61,2.61,0,0,1-.81-.81,2.15,2.15,0,0,1-.3-1.11V4.46a2.15,2.15,0,0,1,.3-1.11,2.61,2.61,0,0,1,.81-.81,2.15,2.15,0,0,1,1.11-.3H193a2.15,2.15,0,0,1,1.11.3,2.51,2.51,0,0,1,.81.81,2.15,2.15,0,0,1,.3,1.11v7.08a2.15,2.15,0,0,1-.3,1.11,2.51,2.51,0,0,1-.81.81,2.15,2.15,0,0,1-1.11.3Zm.08-2.13h6.88a.25.25,0,0,0,.15-.05.2.2,0,0,0,.06-.14V4.56a.2.2,0,0,0-.06-.14.25.25,0,0,0-.15,0H186a.21.21,0,0,0-.13,0,.2.2,0,0,0-.06.14v6.88a.2.2,0,0,0,.06.14A.21.21,0,0,0,186,11.63Z" transform="translate(-0.85 -2.22)"/><path class="cls-1" d="M200.45,13.76l-4.2-11.52h2.24l2.79,7.6,2.78-7.6h2.07l2.78,7.6,2.77-7.6h2.25l-4.19,11.52h-1.66l-3-8.16-3,8.16Z" transform="translate(-0.85 -2.22)"/><path class="cls-1" d="M220.35,13.76V2.24h2.32l4.17,5,4.16-5h2.34V13.76h-2.13V5.31l-4.37,5.2-4.38-5.18v8.43Z" transform="translate(-0.85 -2.22)"/><path class="cls-1" d="M235.23,13.76V2.24h10.61V4.37h-8.48V6.93h6.81V9.07h-6.81v2.56h8.48v2.13Z" transform="translate(-0.85 -2.22)"/></g></g></svg>