<svg xmlns="http://www.w3.org/2000/svg" viewBox="0 0 261.85 11.52"><defs><style>.cls-1{fill:#f0524a;}</style></defs><title>Asset 21</title><g id="Layer_2" data-name="Layer 2"><g id="HTML5"><path class="cls-1" d="M.67,13.76V2.24h2.1V13.76Z" transform="translate(-0.67 -2.24)"/><path class="cls-1" d="M4.35,13.76V2.24H15V4.37H6.48V6.93H13.3V9.07H6.48v4.69Z" transform="translate(-0.67 -2.24)"/><path class="cls-1" d="M25.26,13.76V9.44L20,2.24h2.5l3.89,4.88,3.84-4.88h2.54L27.39,9.46v4.3Z" transform="translate(-0.67 -2.24)"/><path class="cls-1" d="M35.87,13.76a2.15,2.15,0,0,1-1.11-.3,2.41,2.41,0,0,1-.81-.81,2.15,2.15,0,0,1-.3-1.11V4.46A2.15,2.15,0,0,1,34,3.35a2.41,2.41,0,0,1,.81-.81,2.15,2.15,0,0,1,1.11-.3h7.07a2.16,2.16,0,0,1,1.12.3,2.48,2.48,0,0,1,.8.81,2.07,2.07,0,0,1,.31,1.11v7.08a2.07,2.07,0,0,1-.31,1.11,2.48,2.48,0,0,1-.8.81,2.16,2.16,0,0,1-1.12.3ZM36,11.63h6.88a.27.27,0,0,0,.15-.05.2.2,0,0,0,.06-.14V4.56A.2.2,0,0,0,43,4.42a.27.27,0,0,0-.15,0H36a.19.19,0,0,0-.13,0,.2.2,0,0,0-.06.14v6.88a.2.2,0,0,0,.06.14A.19.19,0,0,0,36,11.63Z" transform="translate(-0.67 -2.24)"/><path class="cls-1" d="M48,13.46a2.41,2.41,0,0,1-.81-.81,2.15,2.15,0,0,1-.3-1.11V2.24H49v9.2a.17.17,0,0,0,.19.19h6.88a.24.24,0,0,0,.14-.05.17.17,0,0,0,.07-.14V2.24h2.13v9.3a2.16,2.16,0,0,1-.31,1.11,2.41,2.41,0,0,1-.81.81,2.1,2.1,0,0,1-1.11.3H49.12A2.1,2.1,0,0,1,48,13.46Z" transform="translate(-0.67 -2.24)"/><path class="cls-1" d="M68.93,13.76,64.74,2.24H67l2.78,7.6,2.78-7.6h2.07l2.78,7.6,2.77-7.6h2.26l-4.2,11.52H76.56l-3-8.16-3,8.16Z" transform="translate(-0.67 -2.24)"/><path class="cls-1" d="M83.54,4.46a2.15,2.15,0,0,1,.3-1.11,2.41,2.41,0,0,1,.81-.81,2.1,2.1,0,0,1,1.11-.3h7.06a2.21,2.21,0,0,1,1.12.3,2.41,2.41,0,0,1,.81.81,2.16,2.16,0,0,1,.31,1.11v9.3H92.93V9.89H85.65v3.87H83.54Zm9.39,3.32V4.56a.17.17,0,0,0-.07-.14.24.24,0,0,0-.14,0H85.84a.17.17,0,0,0-.19.19V7.78Z" transform="translate(-0.67 -2.24)"/><path class="cls-1" d="M96.88,13.76V2.24H99.2l7.07,8.42V2.24h2.13V13.76h-2.32L99,5.33v8.43Z" transform="translate(-0.67 -2.24)"/><path class="cls-1" d="M110.19,13.76V2.24h2.32l7.07,8.42V2.24h2.13V13.76h-2.32L112.3,5.33v8.43Z" transform="translate(-0.67 -2.24)"/><path class="cls-1" d="M123.54,4.46a2.15,2.15,0,0,1,.3-1.11,2.41,2.41,0,0,1,.81-.81,2.1,2.1,0,0,1,1.11-.3h7.06a2.21,2.21,0,0,1,1.12.3,2.41,2.41,0,0,1,.81.81,2.16,2.16,0,0,1,.31,1.11v9.3h-2.13V9.89h-7.28v3.87h-2.11Zm9.39,3.32V4.56a.17.17,0,0,0-.07-.14.24.24,0,0,0-.14,0h-6.88a.17.17,0,0,0-.19.19V7.78Z" transform="translate(-0.67 -2.24)"/><path class="cls-1" d="M144,13.76a2.1,2.1,0,0,1-1.11-.3,2.41,2.41,0,0,1-.81-.81,2.15,2.15,0,0,1-.3-1.11v-.88h2.11v.78a.17.17,0,0,0,.19.19h6.9a.19.19,0,0,0,.13-.05.2.2,0,0,0,.06-.14V9.25a.15.15,0,0,0-.06-.13.19.19,0,0,0-.13,0h-7a2.1,2.1,0,0,1-1.11-.3A2.25,2.25,0,0,1,142,8a2.17,2.17,0,0,1-.3-1.13V4.46a2.15,2.15,0,0,1,.3-1.11,2.41,2.41,0,0,1,.81-.81,2.1,2.1,0,0,1,1.11-.3H151a2.1,2.1,0,0,1,1.11.3,2.41,2.41,0,0,1,.81.81,2.07,2.07,0,0,1,.31,1.11v.88h-2.13V4.56a.2.2,0,0,0-.06-.14.19.19,0,0,0-.13,0H144a.17.17,0,0,0-.19.19V6.75a.17.17,0,0,0,0,.13.24.24,0,0,0,.14,0h7a2.1,2.1,0,0,1,1.11.3,2.25,2.25,0,0,1,.81.81,2.09,2.09,0,0,1,.31,1.13v2.37a2.07,2.07,0,0,1-.31,1.11,2.41,2.41,0,0,1-.81.81,2.1,2.1,0,0,1-1.11.3Z" transform="translate(-0.67 -2.24)"/><path class="cls-1" d="M156.07,13.46a2.41,2.41,0,0,1-.81-.81,2.15,2.15,0,0,1-.3-1.11V2.24h2.11v9.2a.2.2,0,0,0,.06.14.19.19,0,0,0,.13.05h6.88a.27.27,0,0,0,.15-.05.2.2,0,0,0,.06-.14V2.24h2.13v9.3a2.07,2.07,0,0,1-.31,1.11,2.48,2.48,0,0,1-.8.81,2.16,2.16,0,0,1-1.12.3h-7.07A2.15,2.15,0,0,1,156.07,13.46Z" transform="translate(-0.67 -2.24)"/><path class="cls-1" d="M168.24,13.76V2.26h9.28a2.19,2.19,0,0,1,1.12.3,2.35,2.35,0,0,1,.82.81,2.1,2.1,0,0,1,.3,1.11v3.1a2.16,2.16,0,0,1-.3,1.12,2.35,2.35,0,0,1-.82.81,2.19,2.19,0,0,1-1.12.3h-7.17v3.94Zm2.3-6.08h6.88a.27.27,0,0,0,.15,0,.15.15,0,0,0,.06-.13V4.56a.2.2,0,0,0-.06-.14.27.27,0,0,0-.15,0h-6.88a.19.19,0,0,0-.13,0,.2.2,0,0,0-.06.14V7.5a.15.15,0,0,0,.06.13A.19.19,0,0,0,170.54,7.68Z" transform="translate(-0.67 -2.24)"/><path class="cls-1" d="M180.9,13.76V2.26h9.27a2.16,2.16,0,0,1,1.12.3,2.2,2.2,0,0,1,.82.81,2.11,2.11,0,0,1,.31,1.11v3.1a2.17,2.17,0,0,1-.31,1.12,2.2,2.2,0,0,1-.82.81,2.16,2.16,0,0,1-1.12.3H183v3.94Zm2.3-6.08h6.88a.24.24,0,0,0,.14,0,.14.14,0,0,0,.07-.13V4.56a.17.17,0,0,0-.07-.14.24.24,0,0,0-.14,0H183.2a.17.17,0,0,0-.19.19V7.5a.17.17,0,0,0,.05.13A.24.24,0,0,0,183.2,7.68Z" transform="translate(-0.67 -2.24)"/><path class="cls-1" d="M195.74,13.76a2.15,2.15,0,0,1-1.11-.3,2.41,2.41,0,0,1-.81-.81,2.15,2.15,0,0,1-.3-1.11V4.46a2.15,2.15,0,0,1,.3-1.11,2.41,2.41,0,0,1,.81-.81,2.15,2.15,0,0,1,1.11-.3h7.07a2.16,2.16,0,0,1,1.12.3,2.48,2.48,0,0,1,.8.81A2.07,2.07,0,0,1,205,4.46v7.08a2.07,2.07,0,0,1-.31,1.11,2.48,2.48,0,0,1-.8.81,2.16,2.16,0,0,1-1.12.3Zm.08-2.13h6.88a.27.27,0,0,0,.15-.05.2.2,0,0,0,.06-.14V4.56a.2.2,0,0,0-.06-.14.27.27,0,0,0-.15,0h-6.88a.19.19,0,0,0-.13,0,.2.2,0,0,0-.06.14v6.88a.2.2,0,0,0,.06.14A.19.19,0,0,0,195.82,11.63Z" transform="translate(-0.67 -2.24)"/><path class="cls-1" d="M206.8,13.76V2.26h9.28a2.19,2.19,0,0,1,1.12.3,2.25,2.25,0,0,1,.81.81,2,2,0,0,1,.31,1.11v3.1A2.08,2.08,0,0,1,218,8.7a2.25,2.25,0,0,1-.81.81,2.19,2.19,0,0,1-1.12.3h-7.17v3.94Zm2.3-6.08H216a.27.27,0,0,0,.15,0,.15.15,0,0,0,.06-.13V4.56a.2.2,0,0,0-.06-.14.27.27,0,0,0-.15,0H209.1a.19.19,0,0,0-.13,0,.2.2,0,0,0-.06.14V7.5a.15.15,0,0,0,.06.13A.19.19,0,0,0,209.1,7.68ZM216,13.76l-3.47-4.14h2.77l3,3.55v.59Z" transform="translate(-0.67 -2.24)"/><path class="cls-1" d="M224.13,13.76V4.37h-4.71V2.24h11.52V4.37h-4.69v9.39Z" transform="translate(-0.67 -2.24)"/><path class="cls-1" d="M237,13.76V2.24h2.32l4.17,5,4.16-5H250V13.76H247.9V5.31l-4.37,5.2-4.38-5.18v8.43Z" transform="translate(-0.67 -2.24)"/><path class="cls-1" d="M251.92,13.76V2.24h10.61V4.37H254V6.93h6.82V9.07H254v2.56h8.49v2.13Z" transform="translate(-0.67 -2.24)"/></g></g></svg>