<svg xmlns="http://www.w3.org/2000/svg" viewBox="0 0 153.71 28.6"><defs><style>.cls-1{fill:#121218;opacity:0.8;}.cls-2{font-size:21.51px;fill:#366fb6;font-family:Rajdhani-SemiBold, Rajdhani;font-weight:600;}.cls-3{fill:#7f54a2;}.cls-4{fill:none;stroke:#366fb6;stroke-miterlimit:10;stroke-width:0.25px;opacity:0.7;}</style></defs><title>1atailwindcss-logo0</title><g id="Layer_2" data-name="Layer 2"><g id="HTML5"><polygon class="cls-1" points="153.59 0.13 153.59 21.73 146.84 28.48 0.13 28.48 0.13 0.13 153.59 0.13"/><text class="cls-2" transform="translate(29.99 21.14)">TAILWINDCSS</text><path class="cls-3" d="M5.12,18.73a5.18,5.18,0,0,1,4.42-4.35,6.81,6.81,0,0,1,6.33,2.23,7.05,7.05,0,0,0,2,1.5,3,3,0,0,0,3.28-.49c.3-.22.56-.49.85-.75A5.25,5.25,0,0,1,18.09,21a6.6,6.6,0,0,1-6.43-1.87,14.24,14.24,0,0,0-1.48-1.32,3.25,3.25,0,0,0-4.54.32A6,6,0,0,0,5.12,18.73Z"/><path class="cls-3" d="M10.79,11.8a5.26,5.26,0,0,1,5-4.31A6.61,6.61,0,0,1,21.5,9.77a9.63,9.63,0,0,0,.84.85,3.41,3.41,0,0,0,4.54.13c.27-.22.52-.47.79-.73a5.28,5.28,0,0,1-4.33,4.2,6.55,6.55,0,0,1-6-1.94A13.54,13.54,0,0,0,16,11a3.33,3.33,0,0,0-4.8.34Z"/><polygon class="cls-4" points="153.59 0.13 153.59 21.73 146.84 28.48 0.13 28.48 0.13 0.13 153.59 0.13"/></g></g></svg>