<svg xmlns="http://www.w3.org/2000/svg" viewBox="0 0 113.64 29.3"><defs><style>.cls-1{fill:#121218;opacity:0.8;}.cls-2{fill:none;stroke:#f0524a;stroke-miterlimit:10;stroke-width:0.25px;}.cls-3{font-size:21.51px;font-family:Rajdhani-SemiBold, Rajdhani;font-weight:600;}.cls-3,.cls-4{fill:#fff;}</style></defs><title>1atiktok-logo0</title><g id="Layer_2" data-name="Layer 2"><g id="HTML5"><polygon class="cls-1" points="113.52 0.13 113.52 21.73 106.77 28.48 0.13 28.48 0.13 0.13 113.52 0.13"/><polygon class="cls-2" points="113.52 0.13 113.52 21.73 106.77 28.48 0.13 28.48 0.13 0.13 113.52 0.13"/><text class="cls-3" transform="translate(43.86 22.11)">TikTok</text><path class="cls-4" d="M27.66,12.36v6.89a5.57,5.57,0,0,1-4.26,5.37,7.56,7.56,0,0,1-3.95-.11,5.2,5.2,0,0,1-3.73-4.65c-.57-4.08,2.24-7.19,6.69-7.11V16a11.68,11.68,0,0,0-1.56.33,2.79,2.79,0,0,0-1.72,3.58,2.19,2.19,0,0,0,2.38,1.41,2.61,2.61,0,0,0,2.7-2.83c-.07-4,0-8,0-12V5.77h3.36c.71,3.42,1.47,4.17,4.56,4.45v3.54A7.86,7.86,0,0,1,27.66,12.36Z"/></g></g></svg>