<svg xmlns="http://www.w3.org/2000/svg" viewBox="0 0 276.72 11.52"><defs><style>.cls-1{fill:#f0524a;}</style></defs><title>Asset 28</title><g id="Layer_2" data-name="Layer 2"><g id="HTML5"><path class="cls-1" d="M.67,13.76V2.24h2.1V13.76Z" transform="translate(-0.67 -2.24)"/><path class="cls-1" d="M4.32,13.76V2.24H6.64l7.07,8.42V2.24h2.13V13.76H13.52L6.43,5.33v8.43Z" transform="translate(-0.67 -2.24)"/><path class="cls-1" d="M19.81,13.76a2.1,2.1,0,0,1-1.11-.3,2.41,2.41,0,0,1-.81-.81,2.07,2.07,0,0,1-.31-1.11v-.88H19.7v.78a.19.19,0,0,0,.05.14.22.22,0,0,0,.14.05h6.89a.22.22,0,0,0,.14-.05.2.2,0,0,0,.06-.14V9.25a.15.15,0,0,0-.06-.13.22.22,0,0,0-.14,0h-7a2.1,2.1,0,0,1-1.11-.3A2.25,2.25,0,0,1,17.89,8a2.09,2.09,0,0,1-.31-1.13V4.46a2.07,2.07,0,0,1,.31-1.11,2.41,2.41,0,0,1,.81-.81,2.1,2.1,0,0,1,1.11-.3h7.07a2.12,2.12,0,0,1,1.11.3,2.41,2.41,0,0,1,.81.81,2.15,2.15,0,0,1,.3,1.11v.88H27V4.56a.2.2,0,0,0-.06-.14.22.22,0,0,0-.14,0H19.89a.22.22,0,0,0-.14,0,.19.19,0,0,0-.05.14V6.75a.14.14,0,0,0,.05.13.22.22,0,0,0,.14,0h7a2.12,2.12,0,0,1,1.11.3A2.25,2.25,0,0,1,28.8,8a2.17,2.17,0,0,1,.3,1.13v2.37a2.15,2.15,0,0,1-.3,1.11,2.41,2.41,0,0,1-.81.81,2.12,2.12,0,0,1-1.11.3Z" transform="translate(-0.67 -2.24)"/><path class="cls-1" d="M30.85,13.76V2.26h9.28a2.19,2.19,0,0,1,1.12.3,2.25,2.25,0,0,1,.81.81,2,2,0,0,1,.31,1.11v3.1a2.08,2.08,0,0,1-.31,1.12,2.25,2.25,0,0,1-.81.81,2.19,2.19,0,0,1-1.12.3H33v3.94Zm2.3-6.08H40a.24.24,0,0,0,.14,0,.14.14,0,0,0,.07-.13V4.56a.17.17,0,0,0-.07-.14.24.24,0,0,0-.14,0H33.15a.19.19,0,0,0-.13,0,.2.2,0,0,0-.06.14V7.5a.15.15,0,0,0,.06.13A.19.19,0,0,0,33.15,7.68Z" transform="translate(-0.67 -2.24)"/><path class="cls-1" d="M43.28,13.76V2.24h2.09V13.76Z" transform="translate(-0.67 -2.24)"/><path class="cls-1" d="M46.93,13.76V2.26h9.28a2.21,2.21,0,0,1,1.12.3,2.25,2.25,0,0,1,.81.81,2.11,2.11,0,0,1,.31,1.11v3.1a2.17,2.17,0,0,1-.31,1.12,2.25,2.25,0,0,1-.81.81,2.21,2.21,0,0,1-1.12.3H49v3.94Zm2.3-6.08h6.88a.24.24,0,0,0,.14,0,.14.14,0,0,0,.07-.13V4.56a.17.17,0,0,0-.07-.14.24.24,0,0,0-.14,0H49.23a.17.17,0,0,0-.19.19V7.5a.17.17,0,0,0,.05.13A.24.24,0,0,0,49.23,7.68Zm6.88,6.08L52.64,9.62h2.77l3,3.55v.59Z" transform="translate(-0.67 -2.24)"/><path class="cls-1" d="M60.16,13.76V2.24H70.77V4.37H62.29V6.93H69.1V9.07H62.29v2.56h8.48v2.13Z" transform="translate(-0.67 -2.24)"/><path class="cls-1" d="M72.41,13.76V2.24h9.28a2.16,2.16,0,0,1,1.12.3,2.36,2.36,0,0,1,.82.81,2.15,2.15,0,0,1,.3,1.11v7.08a2.15,2.15,0,0,1-.3,1.11,2.36,2.36,0,0,1-.82.81,2.16,2.16,0,0,1-1.12.3Zm2.29-2.13h6.9a.24.24,0,0,0,.14-.05.17.17,0,0,0,.07-.14V4.56a.17.17,0,0,0-.07-.14.24.24,0,0,0-.14,0H74.7a.19.19,0,0,0-.13,0,.2.2,0,0,0-.06.14v6.88a.2.2,0,0,0,.06.14A.19.19,0,0,0,74.7,11.63Z" transform="translate(-0.67 -2.24)"/><path class="cls-1" d="M94.48,13.76,90.29,2.24h2.24l2.78,7.6,2.78-7.6h2.07l2.78,7.6,2.77-7.6H108l-4.2,11.52h-1.66l-3-8.16-3,8.16Z" transform="translate(-0.67 -2.24)"/><path class="cls-1" d="M111.31,13.76a2.12,2.12,0,0,1-1.11-.3,2.41,2.41,0,0,1-.81-.81,2.15,2.15,0,0,1-.3-1.11V4.46a2.15,2.15,0,0,1,.3-1.11,2.41,2.41,0,0,1,.81-.81,2.12,2.12,0,0,1,1.11-.3h7.07a2.16,2.16,0,0,1,1.12.3,2.48,2.48,0,0,1,.8.81,2.16,2.16,0,0,1,.31,1.11v7.08a2.16,2.16,0,0,1-.31,1.11,2.48,2.48,0,0,1-.8.81,2.16,2.16,0,0,1-1.12.3Zm.08-2.13h6.88a.3.3,0,0,0,.15-.05.2.2,0,0,0,.06-.14V4.56a.2.2,0,0,0-.06-.14.3.3,0,0,0-.15,0h-6.88a.17.17,0,0,0-.19.19v6.88a.17.17,0,0,0,.19.19Z" transform="translate(-0.67 -2.24)"/><path class="cls-1" d="M122.37,13.76V2.26h9.28a2.21,2.21,0,0,1,1.12.3,2.25,2.25,0,0,1,.81.81,2.11,2.11,0,0,1,.31,1.11v3.1a2.17,2.17,0,0,1-.31,1.12,2.25,2.25,0,0,1-.81.81,2.21,2.21,0,0,1-1.12.3h-7.17v3.94Zm2.3-6.08h6.88a.24.24,0,0,0,.14,0,.14.14,0,0,0,.07-.13V4.56a.17.17,0,0,0-.07-.14.24.24,0,0,0-.14,0h-6.88a.17.17,0,0,0-.19.19V7.5a.17.17,0,0,0,0,.13A.24.24,0,0,0,124.67,7.68Zm6.88,6.08-3.47-4.14h2.77l3,3.55v.59Z" transform="translate(-0.67 -2.24)"/><path class="cls-1" d="M135.58,13.76V2.24h2.13V6.93h2.7l3.94-4.69h2.3v.61L142.33,8l4.34,5.15v.61h-2.32l-3.94-4.69h-2.7v4.69Z" transform="translate(-0.67 -2.24)"/><path class="cls-1" d="M150.49,13.76a2.15,2.15,0,0,1-1.11-.3,2.61,2.61,0,0,1-.81-.81,2.15,2.15,0,0,1-.3-1.11v-.88h2.11v.78a.2.2,0,0,0,.06.14.21.21,0,0,0,.13.05h6.9a.17.17,0,0,0,.19-.19V9.25a.17.17,0,0,0,0-.13.24.24,0,0,0-.14,0h-7a2.15,2.15,0,0,1-1.11-.3,2.41,2.41,0,0,1-.81-.81,2.17,2.17,0,0,1-.3-1.13V4.46a2.15,2.15,0,0,1,.3-1.11,2.61,2.61,0,0,1,.81-.81,2.15,2.15,0,0,1,1.11-.3h7.08a2.15,2.15,0,0,1,1.11.3,2.61,2.61,0,0,1,.81.81,2.15,2.15,0,0,1,.3,1.11v.88h-2.13V4.56a.17.17,0,0,0-.19-.19h-6.9a.21.21,0,0,0-.13,0,.2.2,0,0,0-.06.14V6.75a.15.15,0,0,0,.06.13.21.21,0,0,0,.13,0h7a2.15,2.15,0,0,1,1.11.3,2.41,2.41,0,0,1,.81.81,2.17,2.17,0,0,1,.3,1.13v2.37a2.15,2.15,0,0,1-.3,1.11,2.61,2.61,0,0,1-.81.81,2.15,2.15,0,0,1-1.11.3Z" transform="translate(-0.67 -2.24)"/><path class="cls-1" d="M161.53,13.76V2.26h9.28a2.16,2.16,0,0,1,1.12.3,2.2,2.2,0,0,1,.82.81,2.1,2.1,0,0,1,.3,1.11v3.1a2.16,2.16,0,0,1-.3,1.12,2.2,2.2,0,0,1-.82.81,2.16,2.16,0,0,1-1.12.3h-7.16v3.94Zm2.31-6.08h6.88a.24.24,0,0,0,.14,0,.16.16,0,0,0,.07-.13V4.56a.21.21,0,0,0-.07-.14.24.24,0,0,0-.14,0h-6.88a.22.22,0,0,0-.14,0,.19.19,0,0,0,0,.14V7.5a.14.14,0,0,0,0,.13A.22.22,0,0,0,163.84,7.68Z" transform="translate(-0.67 -2.24)"/><path class="cls-1" d="M174.38,4.46a2.07,2.07,0,0,1,.31-1.11,2.48,2.48,0,0,1,.8-.81,2.16,2.16,0,0,1,1.12-.3h7a2.16,2.16,0,0,1,1.12.3,2.54,2.54,0,0,1,.82.81,2.15,2.15,0,0,1,.3,1.11v9.3h-2.13V9.89h-7.28v3.87h-2.11Zm9.39,3.32V4.56a.2.2,0,0,0-.06-.14.24.24,0,0,0-.14,0h-6.88a.22.22,0,0,0-.14,0,.2.2,0,0,0-.06.14V7.78Z" transform="translate(-0.67 -2.24)"/><path class="cls-1" d="M190,13.76a2.1,2.1,0,0,1-1.11-.3,2.41,2.41,0,0,1-.81-.81,2.15,2.15,0,0,1-.3-1.11V4.46a2.15,2.15,0,0,1,.3-1.11,2.41,2.41,0,0,1,.81-.81,2.1,2.1,0,0,1,1.11-.3h9.26V4.37H190.4a.6.6,0,0,0-.41.14.57.57,0,0,0-.15.42v6.14a.52.52,0,0,0,.56.56h8.81v2.13Z" transform="translate(-0.67 -2.24)"/><path class="cls-1" d="M200.91,13.76V2.24h10.61V4.37H203V6.93h6.81V9.07H203v2.56h8.48v2.13Z" transform="translate(-0.67 -2.24)"/><path class="cls-1" d="M219.11,13.46a2.41,2.41,0,0,1-.81-.81,2.15,2.15,0,0,1-.3-1.11V2.24h2.11v9.2a.2.2,0,0,0,.06.14.19.19,0,0,0,.13.05h6.88a.3.3,0,0,0,.15-.05.2.2,0,0,0,.06-.14V2.24h2.13v9.3a2.07,2.07,0,0,1-.31,1.11,2.48,2.48,0,0,1-.8.81,2.16,2.16,0,0,1-1.12.3h-7.07A2.12,2.12,0,0,1,219.11,13.46Z" transform="translate(-0.67 -2.24)"/><path class="cls-1" d="M231.05,13.76V2.24h2.1V13.76Z" transform="translate(-0.67 -2.24)"/><path class="cls-1" d="M238.8,13.76V11.52l7.57-9.25.63,0V4.45l-7.56,9.26Z" transform="translate(-0.67 -2.24)"/><path class="cls-1" d="M253.91,13.46a2.41,2.41,0,0,1-.81-.81,2.15,2.15,0,0,1-.3-1.11V2.24h2.11v9.2a.17.17,0,0,0,.19.19H262a.3.3,0,0,0,.15-.05.2.2,0,0,0,.06-.14V2.24h2.13v9.3a2.16,2.16,0,0,1-.31,1.11,2.48,2.48,0,0,1-.8.81,2.16,2.16,0,0,1-1.12.3H255A2.12,2.12,0,0,1,253.91,13.46Z" transform="translate(-0.67 -2.24)"/><path class="cls-1" d="M265.92,13.76v-.59L270.25,8l-4.33-5.17V2.24h2.29l3.45,4.1,3.42-4.1h2.31v.59L273,8l4.35,5.15v.61h-2.31l-3.44-4.08-3.43,4.08Z" transform="translate(-0.67 -2.24)"/></g></g></svg>