<svg xmlns="http://www.w3.org/2000/svg" viewBox="0 0 113.64 29.18"><defs><style>.cls-1{fill:#d7d1d1;opacity:0.7;}.cls-2{fill:none;stroke:#fff;stroke-miterlimit:10;stroke-width:0.25px;}.cls-3{font-size:21.51px;font-family:Rajdhani-SemiBold, Rajdhani;font-weight:600;}.cls-3,.cls-4{fill:#7f54a2;}</style></defs><title>1avscode-logo0</title><g id="Layer_2" data-name="Layer 2"><g id="HTML5"><g id="BUTTON"><polygon class="cls-1" points="113.52 0.13 113.52 21.73 106.77 28.48 0.13 28.48 0.13 0.13 113.52 0.13"/><polygon class="cls-2" points="113.52 0.13 113.52 21.73 106.77 28.48 0.13 28.48 0.13 0.13 113.52 0.13"/></g><text class="cls-3" transform="translate(37.47 22)">VSCODE</text><path class="cls-4" d="M28.29,5.58c-1.35-.62-2.67-1.28-4-1.91a1.39,1.39,0,0,0-1.8.3C21,5.33,16.76,9.46,14.37,11.38l-.08.07L17.78,14l3-2.24L24,9.34v9.92l-6.53-5L14,11.68l-.54-.4L11.27,9.62c-.33-.25-.64-.5-1-.73A.9.9,0,0,0,9.07,9c-.5.49-1,1-1.46,1.52v.39a3.82,3.82,0,0,0,.46.6c.9.85,1.82,1.68,2.74,2.52l.34.32,3.06,2.77a.91.91,0,0,1,.13.1q3.51,3.24,7,6.44l1.17,1.08a1.38,1.38,0,0,0,1.69.26c1.35-.65,2.69-1.31,4.05-1.93a1.93,1.93,0,0,0,1.12-1.12V6.69A1.94,1.94,0,0,0,28.29,5.58Zm-19.62,11-.54.57-.52.59v.39c.55.55,1.07,1.15,1.66,1.65.28.24.71,0,1.15-.16a12.51,12.51,0,0,0,3.23-2.47l-3-2.44C9.77,15.53,9.05,16.19,8.67,16.58Z"/></g></g></svg>