<svg xmlns="http://www.w3.org/2000/svg" viewBox="0 0 147.07 28.98"><defs><style>.cls-1{fill:#121218;opacity:0.8;}.cls-2{fill:none;stroke:#f79330;stroke-miterlimit:10;stroke-width:0.25px;}.cls-3{font-size:21.51px;font-family:Rajdhani-SemiBold, Rajdhani;font-weight:600;}.cls-3,.cls-4{fill:#f79330;}</style></defs><title>1awayland-logo0</title><g id="Layer_2" data-name="Layer 2"><g id="HTML5"><polygon class="cls-1" points="146.94 0.13 146.94 21.73 140.19 28.48 0.13 28.48 0.13 0.13 146.94 0.13"/><polygon class="cls-2" points="146.94 0.13 146.94 21.73 140.19 28.48 0.13 28.48 0.13 0.13 146.94 0.13"/><text class="cls-3" transform="translate(44.44 21.8)">WAYLAND</text><path class="cls-4" d="M16.72,13.7c.15-.81.27-1.62.47-2.41a9.82,9.82,0,0,1,2-3.75c.14-.16.29-.31.44-.46h.14c.17,1.73.34,3.47.49,5.2a1.5,1.5,0,0,1-.17.52l.27,0c0,.32,0,.65,0,1a12,12,0,0,0,.56,3.81c.24.83.43,1.67.69,2.5A3.75,3.75,0,0,0,24,22.39c.12.06.48-.17.54-.33a9.23,9.23,0,0,0,.43-1.56c.16-.69.28-1.39.42-2.11l.77.25.07-.15-.71-.43A20.37,20.37,0,0,1,27,13.61a1.93,1.93,0,0,1,.31-.33,28.5,28.5,0,0,1,1,3.62,19.71,19.71,0,0,0,.93,3.3c.2.6.29,1.23.49,1.83a4.1,4.1,0,0,0,.51.84,4.59,4.59,0,0,0,.83-.59,7.66,7.66,0,0,0,.63-1c.31-.5.64-1,.95-1.48,0-.05,0-.14,0-.2a1.33,1.33,0,0,1,.21-.45,1.87,1.87,0,0,1,.49-.23l-.16-.4.43,0a1.1,1.1,0,0,1-.15-.14c-.11-.12-.33-.28-.31-.34s0-.41.32-.47c.17,0,.28-.41.44-.67a1.84,1.84,0,0,1-.42-.23c-.07-.07-.14-.22-.11-.29a15.84,15.84,0,0,0,.69-3.18c.31-1.24.6-2.5.94-3.74A11.89,11.89,0,0,1,35.62,8c.19.28.34.46.47.67a10.13,10.13,0,0,1,1.59,4.71,1.55,1.55,0,0,0,.07.31v1.21c-.07.49-.12,1-.22,1.47a10.48,10.48,0,0,1-20.24,1.2c-.27-.86-.38-1.78-.57-2.67Z"/><path class="cls-4" d="M28,3.79c.74.15,1.49.29,2.22.47.38.09.74.25,1.15.39l-.35.29c.13,0,.21,0,.23,0,.22-.22.43-.16.66,0L33.63,6a.61.61,0,0,1,.27.63c0,1.47-.8,2.73-1.15,4.11-.25,1-.29,1-1.33,1-.26,0-.52,0-.79,0v.15c.27,0,.53,0,.8,0s.51.07.75.1c-.36,1.32-.72,2.6-1.08,3.88a2.83,2.83,0,0,1-.11.31c-.19.4-.43.45-.68.08a9,9,0,0,1-.63-1.14c-.26-.54-.49-1.1-.72-1.66s-.43-1.19-.67-1.78c-.16-.41-.36-.82-.54-1.23A.65.65,0,0,0,27,10a1.21,1.21,0,0,0-.89.86,1.18,1.18,0,0,1,0,.27c-.5,1.26-1,2.51-1.52,3.75-.05.12-.24.28-.28.26a.77.77,0,0,1-.38-.35,10.79,10.79,0,0,1-.41-1.58c-.18-1.11-.35-2.23-.46-3.35,0-.25.25-.53.38-.8-.79-.18-.81-.2-.93-1L22.83,8c-.49,0-.56-.31-.71-.67-.22-.54-.52-1-.81-1.61a2,2,0,0,1,2.06-.45,1.24,1.24,0,0,0,1-.19H22.55A7.13,7.13,0,0,1,25.35,4l1.09-.19ZM25.27,5.06v.13h1.62V5.06Zm-.44,3.32L26,7.81l-.06-.12C25.57,7.89,25.06,7.71,24.83,8.38Z"/></g></g></svg>