<svg xmlns="http://www.w3.org/2000/svg" viewBox="0 0 121.23 11.52"><defs><style>.cls-1{fill:#f0524a;}</style></defs><title>Asset 23</title><g id="Layer_2" data-name="Layer 2"><g id="HTML5"><path class="cls-1" d="M4.75,13.76.56,2.24H2.8l2.78,7.6,2.79-7.6h2.06l2.79,7.6L16,2.24h2.26L14.05,13.76H12.38l-3-8.16-3,8.16Z" transform="translate(-0.56 -2.24)"/><path class="cls-1" d="M21.58,13.76a2.15,2.15,0,0,1-1.11-.3,2.51,2.51,0,0,1-.81-.81,2.15,2.15,0,0,1-.3-1.11V4.46a2.15,2.15,0,0,1,.3-1.11,2.51,2.51,0,0,1,.81-.81,2.15,2.15,0,0,1,1.11-.3h7.08a2.15,2.15,0,0,1,1.11.3,2.61,2.61,0,0,1,.81.81,2.15,2.15,0,0,1,.3,1.11v7.08a2.15,2.15,0,0,1-.3,1.11,2.61,2.61,0,0,1-.81.81,2.15,2.15,0,0,1-1.11.3Zm.08-2.13h6.88a.27.27,0,0,0,.15-.05.2.2,0,0,0,.06-.14V4.56a.2.2,0,0,0-.06-.14.27.27,0,0,0-.15,0H21.66a.19.19,0,0,0-.13,0,.2.2,0,0,0-.06.14v6.88a.2.2,0,0,0,.06.14A.19.19,0,0,0,21.66,11.63Z" transform="translate(-0.56 -2.24)"/><path class="cls-1" d="M32.64,13.76V2.26h9.28a2.19,2.19,0,0,1,1.12.3,2.35,2.35,0,0,1,.82.81,2.1,2.1,0,0,1,.3,1.11v3.1a2.16,2.16,0,0,1-.3,1.12,2.35,2.35,0,0,1-.82.81,2.19,2.19,0,0,1-1.12.3H34.75v3.94Zm2.3-6.08h6.88a.27.27,0,0,0,.15,0A.15.15,0,0,0,42,7.5V4.56A.2.2,0,0,0,42,4.42a.27.27,0,0,0-.15,0H34.94a.19.19,0,0,0-.13,0,.2.2,0,0,0-.06.14V7.5a.15.15,0,0,0,.06.13A.19.19,0,0,0,34.94,7.68Zm6.88,6.08L38.35,9.62h2.77l3,3.55v.59Z" transform="translate(-0.56 -2.24)"/><path class="cls-1" d="M45.86,13.76V2.24H48V6.93h2.71l3.93-4.69h2.31v.61L52.61,8l4.33,5.15v.61H54.62L50.69,9.07H48v4.69Z" transform="translate(-0.56 -2.24)"/><path class="cls-1" d="M60.77,13.76a2.1,2.1,0,0,1-1.11-.3,2.41,2.41,0,0,1-.81-.81,2.07,2.07,0,0,1-.31-1.11v-.88h2.12v.78a.19.19,0,0,0,.05.14.22.22,0,0,0,.14.05h6.89a.22.22,0,0,0,.14-.05.2.2,0,0,0,.06-.14V9.25a.15.15,0,0,0-.06-.13.22.22,0,0,0-.14,0h-7a2.1,2.1,0,0,1-1.11-.3A2.25,2.25,0,0,1,58.85,8a2.09,2.09,0,0,1-.31-1.13V4.46a2.07,2.07,0,0,1,.31-1.11,2.41,2.41,0,0,1,.81-.81,2.1,2.1,0,0,1,1.11-.3h7.07a2.12,2.12,0,0,1,1.11.3,2.41,2.41,0,0,1,.81.81,2.15,2.15,0,0,1,.3,1.11v.88H67.94V4.56a.2.2,0,0,0-.06-.14.22.22,0,0,0-.14,0H60.85a.22.22,0,0,0-.14,0,.19.19,0,0,0-.05.14V6.75a.14.14,0,0,0,.05.13.22.22,0,0,0,.14,0h7a2.12,2.12,0,0,1,1.11.3,2.25,2.25,0,0,1,.81.81,2.17,2.17,0,0,1,.3,1.13v2.37a2.15,2.15,0,0,1-.3,1.11,2.41,2.41,0,0,1-.81.81,2.12,2.12,0,0,1-1.11.3Z" transform="translate(-0.56 -2.24)"/><path class="cls-1" d="M71.81,13.76V2.26h9.28a2.19,2.19,0,0,1,1.12.3,2.25,2.25,0,0,1,.81.81,2,2,0,0,1,.31,1.11v3.1A2.08,2.08,0,0,1,83,8.7a2.25,2.25,0,0,1-.81.81,2.19,2.19,0,0,1-1.12.3H73.92v3.94Zm2.3-6.08H81a.24.24,0,0,0,.14,0,.14.14,0,0,0,.07-.13V4.56a.17.17,0,0,0-.07-.14.24.24,0,0,0-.14,0H74.11a.19.19,0,0,0-.13,0,.2.2,0,0,0-.06.14V7.5a.15.15,0,0,0,.06.13A.19.19,0,0,0,74.11,7.68Z" transform="translate(-0.56 -2.24)"/><path class="cls-1" d="M84.65,4.46A2.16,2.16,0,0,1,85,3.35a2.41,2.41,0,0,1,.81-.81,2.1,2.1,0,0,1,1.11-.3h7.05a2.16,2.16,0,0,1,1.12.3,2.36,2.36,0,0,1,.82.81,2.15,2.15,0,0,1,.3,1.11v9.3H94.05V9.89H86.77v3.87H84.65Zm9.4,3.32V4.56A.17.17,0,0,0,94,4.42a.24.24,0,0,0-.14,0H87a.17.17,0,0,0-.19.19V7.78Z" transform="translate(-0.56 -2.24)"/><path class="cls-1" d="M100.22,13.76a2.15,2.15,0,0,1-1.11-.3,2.41,2.41,0,0,1-.81-.81,2.15,2.15,0,0,1-.3-1.11V4.46a2.15,2.15,0,0,1,.3-1.11,2.41,2.41,0,0,1,.81-.81,2.15,2.15,0,0,1,1.11-.3h9.27V4.37h-8.82a.6.6,0,0,0-.41.14.57.57,0,0,0-.15.42v6.14a.52.52,0,0,0,.56.56h8.82v2.13Z" transform="translate(-0.56 -2.24)"/><path class="cls-1" d="M111.18,13.76V2.24h10.61V4.37h-8.48V6.93h6.82V9.07h-6.82v2.56h8.48v2.13Z" transform="translate(-0.56 -2.24)"/></g></g></svg>