<svg xmlns="http://www.w3.org/2000/svg" viewBox="0 0 113.64 29.18"><defs><style>.cls-1{fill:#121218;opacity:0.8;}.cls-2,.cls-6{fill:#f0524a;}.cls-2{opacity:0.7;}.cls-3{fill:none;stroke:#f0524a;stroke-miterlimit:10;stroke-width:0.25px;}.cls-4{font-size:21.51px;font-family:Rajdhani-SemiBold, Rajdhani;font-weight:600;}.cls-4,.cls-5{fill:#fff;}</style></defs><title>1ayoutube-logo0</title><g id="Layer_2" data-name="Layer 2"><g id="HTML5"><polygon class="cls-1" points="113.52 0.13 113.52 21.73 106.77 28.48 0.13 28.48 0.13 0.13 113.52 0.13"/><polygon class="cls-2" points="113.52 0.13 113.52 21.73 106.77 28.48 0.13 28.48 0.13 0.13 113.52 0.13"/><polygon class="cls-3" points="113.52 0.13 113.52 21.73 106.77 28.48 0.13 28.48 0.13 0.13 113.52 0.13"/><text class="cls-4" transform="translate(34.52 22)">Youtube</text><path class="cls-5" d="M18.53,5.58c2.83.12,5.48.17,8.12.37s3.57,1,3.91,3.71a31.92,31.92,0,0,1-.1,9.9C30,22,29,22.93,26.61,23q-8.12.11-16.22,0c-2.84,0-3.85-1-4.25-3.88A32,32,0,0,1,6.3,9a3.28,3.28,0,0,1,3.48-3C12.75,5.8,15.73,5.69,18.53,5.58ZM15.89,10.8v7.28l6.4-3.64Z"/><path class="cls-6" d="M15.89,10.8l6.4,3.64-6.4,3.64Z"/></g></g></svg>